<?xml version="1.0" encoding="UTF-8"?><svg xmlns="http://www.w3.org/2000/svg" xmlns:xlink="http://www.w3.org/1999/xlink" viewBox="0 0 389.98 117.84"><defs><style>.i,.j{fill:none;}.k{letter-spacing:-.02em;}.l{letter-spacing:-.06em;}.m{letter-spacing:.08em;}.j{font-family:EloquentJFSmallCapsPro-Italic, EloquentJFSmallCapsPro;font-size:83.87px;stroke:#282a7a;stroke-width:3px;}.n{fill:gray;mix-blend-mode:multiply;opacity:.4;}.o{letter-spacing:0em;}.p{letter-spacing:.02em;}.q{clip-path:url(#e);}.r{isolation:isolate;}</style><clipPath id="e"><path class="i" d="M37.02,80.46c-12.7,.07-16.67-4.86-25.63-4.81-4.14,.02-6.09,2.47-6.38,3.39l-.98,.09,7.72-29.23h1.08c-.16,6.96,5.28,29.57,23.4,29.48,7.58-.04,14.95-4.11,16.68-10.74,5.6-21.17-43.48-9.49-36.24-36.71,2.99-11.42,18.89-21.74,35.83-21.84,9.85-.05,12.72,3.62,18.53,3.59,5.61-.03,7.96-2.31,8.45-3.9l.79,.08-6.66,25.29-1.08-.08c1.53-8.65-3.68-23.97-18.35-23.89-7.29,.04-13.08,3.93-14.72,10.23-5.4,20.58,43.56,5.38,35.26,36.46-3.28,12.43-19.08,22.5-37.69,22.6Zm93.35-2.27l-34.86,.19,.19-1.01,3.94-.02c1.77,0,3.05-.94,3.43-2.45,.1-.42,.19-.92,.09-1.51l-1.55-14-14.28,.08-4,6.56c-1.07,1.6-1.66,3.11-2.04,4.46-1.06,4.03,.43,6.96,5.16,6.93h2.36l-.19,1-22.65,.12,.29-1.01h1.18c5.51-.04,11.29-6.86,15-12.75l20.02-31.82,17.04-.09,5.35,42.08c.11,1.59,1.29,2.26,3.06,2.25h2.66l-.19,.99Zm-28.87-20.06l-2.07-17.85-11.33,17.93,13.39-.07Zm92.47-2.35h-2.36c-1.67,.02-3.93,1.12-6.51,3.31l-5.02,19.15h.72l.19-.92c.39-1.26-.22-3.69-5.14-3.66-8.47,.05-8.64,5.58-20.95,5.65-16.64,.09-24.77-8.67-21-22.78,4.15-15.46,19.17-25.27,37.48-25.37,6.79-.04,8.68,3.22,13.51,3.2,3.64-.02,5.4-2.21,5.6-2.97h.98l-5.02,18.64-.89-.08c.47-4.45-.49-17.86-14.28-17.79-7.98,.04-13.54,8.54-17.69,24.42-4.25,15.88-3.53,21.74,3.17,21.71,4.83-.03,7.08-2.64,8.62-8.35l2.8-10.75c.58-2.18-1.3-3.26-3.76-3.25l-3.64,.02,.29-1.09,33.19-.18-.29,1.09Zm25.92,21.92l-33.19,.18,.19-1.01,2.95-.02c2.86-.02,5.21-1.71,5.79-3.97l9.46-35.7c.58-2.27-.32-3.77-2.97-3.76h-2.66l.19-.99,32.2-.18-.19,1.01-3.05,.02c-1.87,.01-3.83,1.62-4.41,3.71l-9.46,35.78c-.58,2.27,.12,3.94,2.48,3.93l2.86-.02-.19,1.01Zm73.78-14.41c-2.99,11.42-7.01,14.72-17.06,14.77-8.17,.04-11.55-4.47-10.29-9.25,.77-2.69,1.55-4.79,2.61-8.65,1.16-4.28,.07-5.87-4.17-5.85h-2.36l-5.02,19.08c-.58,2.27,.31,3.1,2.08,3.09l3.15-.02-.19,1.01-32.3,.18,.19-1.01,2.86-.02c2.46-.01,3.93-1.11,4.51-3.29l9.75-36.54c.67-2.77-.22-3.61-2.28-3.59l-3.25,.02,.19-1.01,31.51-.17c17.14-.09,21.4,4.58,19.76,10.88-1.64,6.38-8.22,9.69-18.75,10.67l-.1,.25c9.95,.95,14.79,2.69,12.86,10l-1.93,7.06c-.48,1.93-.08,2.94,1.3,2.93,1.48,0,3.73-1.87,6.05-10.52h.89Zm-23.9-30.24h-1.67l-5.41,20.17h1.77c5.51-.04,7.48-1.14,9.89-10.04,2.51-9.49-.06-10.15-4.58-10.12Zm56.57,44.06l-33.19,.18,.19-1.01,2.95-.02c2.86-.02,5.21-1.71,5.79-3.97l9.46-35.7c.58-2.27-.32-3.77-2.97-3.76h-2.66l.19-.99,32.2-.18-.19,1.01-3.05,.02c-1.87,.01-3.83,1.62-4.41,3.71l-9.46,35.78c-.58,2.27,.12,3.94,2.48,3.93l2.86-.02-.19,1.01Zm28.96,1.35c-8.67,.05-10.66-3.38-16.76-3.35-2.86,.02-4.32,1.7-4.52,2.37l-.98,.09,5.41-20.16h1.08c-.17,4.78,1.49,20.2,15.37,20.12,6.6-.04,9.83-2.91,10.6-5.84,3.09-11.68-28.51-9.91-24.17-26.62,2.12-7.9,11.44-14.91,24.64-14.98,7.78-.04,9.47,2.46,13.51,2.44,3.84-.02,5.51-1.62,5.8-2.72h.89l-4.63,17.38h-.99c1.24-7.47-.84-14.41-10.99-14.36-3.84,.02-10.07-.2-10.94,3.24-3.38,12.77,27.81,7.65,22.8,26.8-2.32,8.57-13.21,15.51-26.11,15.58Z"/></clipPath></defs><g class="r"><g id="a"/><g id="b"><g id="c"><g><g id="d"><text class="j" transform="translate(1.92 79.09) rotate(-.31) scale(1.17 1)"><tspan class="l" x="0" y="0">Sa</tspan><tspan class="k" x="105.51" y="0">g</tspan><tspan class="m" x="157.93" y="0">i</tspan><tspan class="p" x="194.92" y="0">ri</tspan><tspan class="o" x="280.55" y="0">s</tspan></text></g><g class="q"><g id="f"><image id="g" transform="translate(77.1 -171.58) rotate(30.32) scale(.55)" xlink:href="../Downloads/marble-768x512-300ppi.jpg"/><g id="h"><rect class="n" x="47.28" y="-154.1" width="280.25" height="420.04" transform="translate(44.54 189.48) rotate(-59.68)"/></g></g></g></g></g></g></g></svg>