<?xml version="1.0" encoding="UTF-8"?><svg xmlns="http://www.w3.org/2000/svg" viewBox="0 0 369.04 130.84"><defs><style>.d{letter-spacing:-.02em;}.e{fill:gray;}.e,.f,.g,.h{font-family:EloquentJFSmallCapsPro-Italic, EloquentJFSmallCapsPro;font-size:92.14px;}.i{fill:#997e13;}.j{letter-spacing:-.06em;}.f{stroke:#5701c2;stroke-miterlimit:10;stroke-width:7px;}.f,.k,.h{fill:none;}.l{letter-spacing:.02em;}.m{letter-spacing:.04em;}.k{stroke:#231f20;stroke-width:.5px;}.n{letter-spacing:-.06em;}.h{stroke:#000;stroke-width:4px;}</style></defs><g id="a"/><g id="b"><g id="c"><g><g><text class="f" transform="translate(3.5 86.43) scale(1.01 1)"><tspan class="n" x="0" y="0">S</tspan><tspan class="j" x="61.92" y="0">a</tspan><tspan class="d" x="115.73" y="0">g</tspan><tspan class="m" x="173.32" y="0">i</tspan><tspan class="l" x="210.27" y="0">ri</tspan><tspan x="304.35" y="0">s</tspan></text><text class="h" transform="translate(3.5 86.43) scale(1.01 1)"><tspan class="n" x="0" y="0">S</tspan><tspan class="j" x="61.92" y="0">a</tspan><tspan class="d" x="115.73" y="0">g</tspan><tspan class="m" x="173.32" y="0">i</tspan><tspan class="l" x="210.27" y="0">ri</tspan><tspan x="304.35" y="0">s</tspan></text><text class="g" transform="translate(3.5 86.43) scale(1.01 1)"><tspan class="n" x="0" y="0">S</tspan><tspan class="j" x="61.92" y="0">a</tspan><tspan class="d" x="115.73" y="0">g</tspan><tspan class="m" x="173.32" y="0">i</tspan><tspan class="l" x="210.27" y="0">ri</tspan><tspan x="304.35" y="0">s</tspan></text><text class="e" transform="translate(3.5 86.43) scale(1.01 1)"><tspan class="n" x="0" y="0">S</tspan><tspan class="j" x="61.92" y="0">a</tspan><tspan class="d" x="115.73" y="0">g</tspan><tspan class="m" x="173.32" y="0">i</tspan><tspan class="l" x="210.27" y="0">ri</tspan><tspan x="304.35" y="0">s</tspan></text></g><g><g><path class="i" d="M56.37,111.97l-.56-17.23h3.49c-.06,5.54,0,11.69-.22,13.57h.02c.81-2.37,4.38-9.63,6.18-13.57h3.07c.16,3.31,.48,10.58,.36,13.39h.02c.75-2.33,2.5-6.16,5.59-13.39h3.48l-8.25,17.23h-3.59c-.07-3.4-.34-9.39-.31-12.36h-.03c-1.07,3.15-4.12,9.09-5.69,12.36h-3.59Z"/><path class="i" d="M79.72,106.27c-.05,.28-.08,.49-.08,.77,0,1.37,.51,2.55,2.05,2.55,1.38,0,1.99-.74,2.42-1.57h3.54c-.72,1.91-2.37,4.19-6.24,4.19-3.48,0-5.18-2.18-5.18-5.31,0-3.41,1.87-8.13,7.01-8.13,3.81,0,5.14,2.33,5.14,4.97,0,1.04-.14,1.79-.34,2.52h-8.3Zm5.35-2.27c.05-.24,.06-.42,.06-.58,0-1.13-.5-2.09-2-2.09s-2.51,1-2.96,2.67h4.89Z"/><path class="i" d="M93.18,93.72h3.4l-1.44,6.74c.81-.97,2.01-1.68,3.78-1.68,2.7,0,4.16,2.06,4.16,4.86,0,3.95-2.18,8.58-6.96,8.58-1.78,0-2.76-.67-3.17-1.47-.09,.36-.22,.94-.32,1.22h-3.33c.19-.86,.44-2.01,.73-3.31l3.15-14.93Zm6.36,10.28c0-1.61-.71-2.42-2.14-2.42-1.77,0-2.95,1.3-3.48,4.01-.5,2.52,.1,3.85,1.99,3.85,2.63,0,3.62-3.32,3.62-5.44Z"/><path class="i" d="M114.67,94.73h5.55c4.51,0,7.39,2.69,7.39,7.33,0,5.57-3.59,9.91-9.92,9.91h-6.69l3.66-17.23Zm.47,14.41h2.68c3.73,0,6.07-2.63,6.07-7.02,0-3.05-1.48-4.57-4.11-4.57h-2.2l-2.45,11.59Z"/><path class="i" d="M132.99,106.27c-.05,.28-.08,.49-.08,.77,0,1.37,.51,2.55,2.05,2.55,1.38,0,1.99-.74,2.42-1.57h3.54c-.72,1.91-2.37,4.19-6.24,4.19-3.48,0-5.18-2.18-5.18-5.31,0-3.41,1.87-8.13,7.01-8.13,3.81,0,5.14,2.33,5.14,4.97,0,1.04-.14,1.79-.34,2.52h-8.3Zm5.35-2.27c.05-.24,.06-.42,.06-.58,0-1.13-.5-2.09-2-2.09s-2.51,1-2.96,2.67h4.89Z"/><path class="i" d="M147.04,99.03c.43,5.41,.62,8.12,.64,9.77h.02c.8-1.92,2.19-4.62,4.73-9.77h3.56l-7,12.94h-3.89l-1.42-12.94h3.35Z"/><path class="i" d="M159.27,106.27c-.05,.28-.08,.49-.08,.77,0,1.37,.51,2.55,2.05,2.55,1.38,0,1.99-.74,2.42-1.57h3.54c-.72,1.91-2.37,4.19-6.24,4.19-3.48,0-5.18-2.18-5.18-5.31,0-3.41,1.87-8.13,7.01-8.13,3.81,0,5.14,2.33,5.14,4.97,0,1.04-.14,1.79-.34,2.52h-8.3Zm5.35-2.27c.05-.24,.06-.42,.06-.58,0-1.13-.5-2.09-2-2.09s-2.51,1-2.96,2.67h4.89Z"/><path class="i" d="M168.85,111.97l3.86-18.24h3.4l-3.86,18.24h-3.4Z"/><path class="i" d="M188.54,104.33c0,3.04-1.78,7.89-7.26,7.89-3.6,0-5.26-2.19-5.26-5.34,0-3.48,2.21-8.09,7.15-8.09,3.1,0,5.37,1.75,5.37,5.55Zm-8.99,2.56c0,1.8,.76,2.68,2.08,2.68,2.44,0,3.4-3.38,3.4-5.58,0-1.68-.7-2.57-2.12-2.57-2.36,0-3.36,3.36-3.36,5.47Z"/><path class="i" d="M193.28,110.78l-1.3,6.14h-3.38l2.99-14.15c.37-1.75,.6-2.91,.73-3.75h3.37c0,.27-.17,1.14-.27,1.73,.71-.99,1.94-1.98,3.96-1.98,2.61,0,4.15,1.98,4.15,5.06,0,4.04-2.48,8.37-7.08,8.37-1.6,0-2.71-.69-3.16-1.44Zm6.7-6.57c0-1.86-.86-2.63-2.16-2.63-1.84,0-3.08,1.7-3.55,3.97-.44,2.15-.1,3.89,2.04,3.89,2.54,0,3.66-3.05,3.66-5.23Z"/><path class="i" d="M206.57,102.66c.25-1.22,.52-2.47,.72-3.63h3.33c-.05,.31-.14,1-.25,1.5,.84-1.04,1.81-1.75,3.6-1.75s2.7,.82,2.95,2.08c.92-1.13,2.19-2.08,4.22-2.08,2.2,0,3.85,1.25,3.1,4.76l-1.79,8.43h-3.31l1.7-8c.24-1.17,.19-2.37-1.41-2.37s-2.25,1.12-2.66,3.08l-1.55,7.28h-3.35l1.71-8.05c.26-1.24,.06-2.29-1.38-2.29-1.52,0-2.3,1.06-2.75,3.25l-1.49,7.1h-3.35l1.97-9.31Z"/><path class="i" d="M229.79,106.27c-.05,.28-.08,.49-.08,.77,0,1.37,.51,2.55,2.05,2.55,1.38,0,1.99-.74,2.42-1.57h3.54c-.72,1.91-2.37,4.19-6.24,4.19-3.48,0-5.18-2.18-5.18-5.31,0-3.41,1.87-8.13,7.01-8.13,3.81,0,5.14,2.33,5.14,4.97,0,1.04-.14,1.79-.34,2.52h-8.3Zm5.35-2.27c.05-.24,.06-.42,.06-.58,0-1.13-.5-2.09-2-2.09s-2.51,1-2.96,2.67h4.89Z"/><path class="i" d="M241.57,102.31c.22-1.1,.47-2.19,.65-3.28h3.33c-.03,.36-.18,1.29-.25,1.62,.6-.78,1.75-1.87,3.91-1.87,2.54,0,4.01,1.54,3.19,5.36l-1.65,7.82h-3.38l1.65-7.85c.32-1.45,0-2.49-1.46-2.49-1.66,0-2.7,1.26-3.21,3.65l-1.41,6.69h-3.4l2.04-9.65Z"/><path class="i" d="M255.1,99.03h1.92l.76-3.49h3.38l-.73,3.49h2.43l-.58,2.6h-2.43l-1.36,6.51c-.17,.81-.1,1.34,.92,1.34,.39,0,.73-.02,1.11-.08l-.52,2.46c-.76,.24-1.59,.24-2.3,.24-2.69,0-3.11-1.54-2.64-3.81l1.39-6.67h-1.92l.58-2.6Z"/></g><g><path class="k" d="M56.37,111.97l-.56-17.23h3.49c-.06,5.54,0,11.69-.22,13.57h.02c.81-2.37,4.38-9.63,6.18-13.57h3.07c.16,3.31,.48,10.58,.36,13.39h.02c.75-2.33,2.5-6.16,5.59-13.39h3.48l-8.25,17.23h-3.59c-.07-3.4-.34-9.39-.31-12.36h-.03c-1.07,3.15-4.12,9.09-5.69,12.36h-3.59Z"/><path class="k" d="M79.72,106.27c-.05,.28-.08,.49-.08,.77,0,1.37,.51,2.55,2.05,2.55,1.38,0,1.99-.74,2.42-1.57h3.54c-.72,1.91-2.37,4.19-6.24,4.19-3.48,0-5.18-2.18-5.18-5.31,0-3.41,1.87-8.13,7.01-8.13,3.81,0,5.14,2.33,5.14,4.97,0,1.04-.14,1.79-.34,2.52h-8.3Zm5.35-2.27c.05-.24,.06-.42,.06-.58,0-1.13-.5-2.09-2-2.09s-2.51,1-2.96,2.67h4.89Z"/><path class="k" d="M93.18,93.72h3.4l-1.44,6.74c.81-.97,2.01-1.68,3.78-1.68,2.7,0,4.16,2.06,4.16,4.86,0,3.95-2.18,8.58-6.96,8.58-1.78,0-2.76-.67-3.17-1.47-.09,.36-.22,.94-.32,1.22h-3.33c.19-.86,.44-2.01,.73-3.31l3.15-14.93Zm6.36,10.28c0-1.61-.71-2.42-2.14-2.42-1.77,0-2.95,1.3-3.48,4.01-.5,2.52,.1,3.85,1.99,3.85,2.63,0,3.62-3.32,3.62-5.44Z"/><path class="k" d="M114.67,94.73h5.55c4.51,0,7.39,2.69,7.39,7.33,0,5.57-3.59,9.91-9.92,9.91h-6.69l3.66-17.23Zm.47,14.41h2.68c3.73,0,6.07-2.63,6.07-7.02,0-3.05-1.48-4.57-4.11-4.57h-2.2l-2.45,11.59Z"/><path class="k" d="M132.99,106.27c-.05,.28-.08,.49-.08,.77,0,1.37,.51,2.55,2.05,2.55,1.38,0,1.99-.74,2.42-1.57h3.54c-.72,1.91-2.37,4.19-6.24,4.19-3.48,0-5.18-2.18-5.18-5.31,0-3.41,1.87-8.13,7.01-8.13,3.81,0,5.14,2.33,5.14,4.97,0,1.04-.14,1.79-.34,2.52h-8.3Zm5.35-2.27c.05-.24,.06-.42,.06-.58,0-1.13-.5-2.09-2-2.09s-2.51,1-2.96,2.67h4.89Z"/><path class="k" d="M147.04,99.03c.43,5.41,.62,8.12,.64,9.77h.02c.8-1.92,2.19-4.62,4.73-9.77h3.56l-7,12.94h-3.89l-1.42-12.94h3.35Z"/><path class="k" d="M159.27,106.27c-.05,.28-.08,.49-.08,.77,0,1.37,.51,2.55,2.05,2.55,1.38,0,1.99-.74,2.42-1.57h3.54c-.72,1.91-2.37,4.19-6.24,4.19-3.48,0-5.18-2.18-5.18-5.31,0-3.41,1.87-8.13,7.01-8.13,3.81,0,5.14,2.33,5.14,4.97,0,1.04-.14,1.79-.34,2.52h-8.3Zm5.35-2.27c.05-.24,.06-.42,.06-.58,0-1.13-.5-2.09-2-2.09s-2.51,1-2.96,2.67h4.89Z"/><path class="k" d="M168.85,111.97l3.86-18.24h3.4l-3.86,18.24h-3.4Z"/><path class="k" d="M188.54,104.33c0,3.04-1.78,7.89-7.26,7.89-3.6,0-5.26-2.19-5.26-5.34,0-3.48,2.21-8.09,7.15-8.09,3.1,0,5.37,1.75,5.37,5.55Zm-8.99,2.56c0,1.8,.76,2.68,2.08,2.68,2.44,0,3.4-3.38,3.4-5.58,0-1.68-.7-2.57-2.12-2.57-2.36,0-3.36,3.36-3.36,5.47Z"/><path class="k" d="M193.28,110.78l-1.3,6.14h-3.38l2.99-14.15c.37-1.75,.6-2.91,.73-3.75h3.37c0,.27-.17,1.14-.27,1.73,.71-.99,1.94-1.98,3.96-1.98,2.61,0,4.15,1.98,4.15,5.06,0,4.04-2.48,8.37-7.08,8.37-1.6,0-2.71-.69-3.16-1.44Zm6.7-6.57c0-1.86-.86-2.63-2.16-2.63-1.84,0-3.08,1.7-3.55,3.97-.44,2.15-.1,3.89,2.04,3.89,2.54,0,3.66-3.05,3.66-5.23Z"/><path class="k" d="M206.57,102.66c.25-1.22,.52-2.47,.72-3.63h3.33c-.05,.31-.14,1-.25,1.5,.84-1.04,1.81-1.75,3.6-1.75s2.7,.82,2.95,2.08c.92-1.13,2.19-2.08,4.22-2.08,2.2,0,3.85,1.25,3.1,4.76l-1.79,8.43h-3.31l1.7-8c.24-1.17,.19-2.37-1.41-2.37s-2.25,1.12-2.66,3.08l-1.55,7.28h-3.35l1.71-8.05c.26-1.24,.06-2.29-1.38-2.29-1.52,0-2.3,1.06-2.75,3.25l-1.49,7.1h-3.35l1.97-9.31Z"/><path class="k" d="M229.79,106.27c-.05,.28-.08,.49-.08,.77,0,1.37,.51,2.55,2.05,2.55,1.38,0,1.99-.74,2.42-1.57h3.54c-.72,1.91-2.37,4.19-6.24,4.19-3.48,0-5.18-2.18-5.18-5.31,0-3.41,1.87-8.13,7.01-8.13,3.81,0,5.14,2.33,5.14,4.97,0,1.04-.14,1.79-.34,2.52h-8.3Zm5.35-2.27c.05-.24,.06-.42,.06-.58,0-1.13-.5-2.09-2-2.09s-2.51,1-2.96,2.67h4.89Z"/><path class="k" d="M241.57,102.31c.22-1.1,.47-2.19,.65-3.28h3.33c-.03,.36-.18,1.29-.25,1.62,.6-.78,1.75-1.87,3.91-1.87,2.54,0,4.01,1.54,3.19,5.36l-1.65,7.82h-3.38l1.65-7.85c.32-1.45,0-2.49-1.46-2.49-1.66,0-2.7,1.26-3.21,3.65l-1.41,6.69h-3.4l2.04-9.65Z"/><path class="k" d="M255.1,99.03h1.92l.76-3.49h3.38l-.73,3.49h2.43l-.58,2.6h-2.43l-1.36,6.51c-.17,.81-.1,1.34,.92,1.34,.39,0,.73-.02,1.11-.08l-.52,2.46c-.76,.24-1.59,.24-2.3,.24-2.69,0-3.11-1.54-2.64-3.81l1.39-6.67h-1.92l.58-2.6Z"/></g></g></g></g></g></svg>