<?xml version="1.0" encoding="UTF-8"?>
<svg id="Sagiris" xmlns="http://www.w3.org/2000/svg" version="1.1" viewBox="0 0 439.7 79.9">
  <!-- Generator: Adobe Illustrator 29.7.1, SVG Export Plug-In . SVG Version: 2.1.1 Build 8)  -->
  <g>
    <g>
      <path d="M59.6,26.1c0,1.6-1.5,1.8-2,.2-2.3-7.8-11.8-9.8-21.5-9.8s-15.7.9-15.7,6.5c0,11.8,44.3,3.2,44.3,24.3s-15.8,16.3-30.2,16.3-18.8-2.8-22.2-3.4c-2-.4-1.4.7-2.2.7s-1.2-.4-1.4-2.9l-1.4-12.5c0-.7.3-1.2.9-1.2s.7.5,1,1.2c4.9,11.4,16.8,13.1,25.4,13.1s18.5-1.3,18.5-7.6c0-13.3-44.3-2.2-44.3-24s15.8-15.5,27.4-15.5,13,1,19.3,2.4c1.8.5,1.4-.7,2.2-.7s.9.2,1.2,3.3l.8,9.5Z" fill="#d9d9d9"/>
      <path d="M34.4,65.5c-11.1,0-16.5-1.7-20.1-2.8-1-.3-1.8-.6-2.5-.7,0,0,0,0,0,0-.4.4-.9.8-1.9.8-2.9,0-3.3-3.3-3.4-4.7l-1.3-12.5c-.1-.9.1-1.8.7-2.4.5-.6,1.3-1,2.2-1,1.9,0,2.5,1.6,2.7,2.1v.2c3.5,8,11.2,11.9,23.6,11.9s16.5-.7,16.5-5.6-7.9-5.1-16.3-6.3c-12.5-1.7-27.9-3.7-27.9-17.8s5.1-17.5,29.4-17.5,12.9.9,18.2,2.1l1.4.3c.4-.4,1-.8,1.9-.8,2.7,0,3,2.9,3.2,5.2l.8,9.6c0,1.7-.9,3.1-2.4,3.4-1.6.3-3-.8-3.5-2.6-1.7-5.5-8.2-8.3-19.6-8.3s-13.7,1.2-13.7,4.5,8,4.6,15.7,5.9c12.7,2.1,28.6,4.6,28.6,18.4s-11.4,18.3-32.2,18.3ZM11.4,58c.3,0,.7,0,1.1.1.9.2,1.9.5,3,.8,3.3,1,8.4,2.6,18.9,2.6s28.2-1.9,28.2-14.3-10.9-12.2-25.2-14.5c-10.2-1.6-19-3.1-19-9.8s6.3-8.5,17.7-8.5,17.4,2.3,21.1,6.8l-.4-4.5c0-.3,0-.5,0-.7-.5,0-1.1,0-1.8-.1l-1.5-.3c-5.2-1.2-8.6-2-17.3-2s-25.4,2.3-25.4,13.5,10.1,11.9,24.5,13.8c10.2,1.4,19.8,2.6,19.8,10.2s-6.9,9.6-20.5,9.6-19.9-3.3-24.7-9.9l.8,7c0,.2,0,.3,0,.4.3,0,.6-.1.9-.1ZM9.1,45.2h0s0,0,0,0ZM57.6,26.2s0,0,0,0h0Z" fill="#834ab0"/>
    </g>
    <g>
      <path d="M117.2,48.1h-32.5l-2.7,4c-.8,1.2-2.7,4-2.7,6s1,2.8,4.2,2.8,1.9.4,1.9.8-.6.9-1.8.9c-3.8,0-7.5-.2-11.1-.2s-7.6.2-11.4.2-1.8-.5-1.8-.9.6-.8,1.8-.8c5.5,0,8.2-2.2,13.9-10.6l22.4-32.8c-1.3-2.2-4.8-3.4-7-3.4s-1.9-.5-1.9-.9.7-.8,1.8-.8h11.7c5.6,0,8.1,1.4,10.4,5l21.5,32.4c2.8,4.2,7.8,11.1,12.4,11.1s1.8.5,1.8,1-.6.7-1.8.7c-4.6,0-9.2-.2-13.8-.2s-9.4.2-14.1.2-1.7-.3-1.7-.8.5-.9,1.7-.9c1.9,0,4.3-.5,4.3-2.7s-.5-2.4-3-6.1l-2.7-4ZM88,43h25.8l-12.9-19.6-13,19.6Z" fill="#d9d9d9"/>
      <path d="M146.4,64.6c-2.3,0-4.7,0-6.9,0-4.5,0-9.3,0-13.8,0-2.3,0-4.8,0-7.2,0-3.4,0-3.7-2.2-3.7-2.8,0-1.4,1.3-2.9,3.7-2.9s2.3,0,2.3-.7-.8-2.2-2.6-5l-2.1-3.1h-30.3l-2.1,3.2c-1.7,2.5-2.4,4.2-2.4,4.9s.8.8,2.2.8c2.7,0,3.9,1.4,3.9,2.8s-1.2,2.9-3.8,2.9-3.9,0-5.7,0c-1.8,0-3.6,0-5.4,0s-3.8,0-5.7,0c-1.9,0-3.8,0-5.8,0s-3.8-1.5-3.8-2.9,1.3-2.8,3.8-2.8c4.4,0,6.5-1.4,12.3-9.8l21.5-31.5c-1.2-.9-3.1-1.6-4.5-1.6-2.6,0-3.9-1.5-3.9-2.9s1.2-2.8,3.8-2.8h11.7c6,0,9.3,1.6,12.1,6l21.5,32.4c5.8,8.9,9.2,10.2,10.8,10.2,2.6,0,3.8,1.5,3.8,3s-.2,2.7-3.8,2.7ZM146.8,63h0ZM83.6,46.1h34.6l3.3,4.9c2.5,3.8,3.3,5.5,3.3,7.2s0,1.4-.7,2.3c.5,0,1,0,1.4,0,4.6,0,9.4,0,14,0,.3,0,.6,0,1,0-2.6-2-5.3-5.1-8.2-9.6l-21.5-32.4c-1.8-2.8-3.6-4.1-8.8-4.1h-4.8c.8.6,1.5,1.3,1.9,2.1l.6,1.1-23.1,33.8c-3,4.4-5.3,7.3-7.8,9.1,3,0,6,0,9,0-.6-.9-.7-1.9-.7-2.4,0-1.8,1-4.2,3.1-7.2l3.3-4.9ZM117.5,45h-33.3l16.7-25.3,16.6,25.3ZM91.7,41h18.4l-9.2-14-9.2,14Z" fill="#834ab0"/>
    </g>
    <g>
      <path d="M209.7,55.1c0,7.7-21.5,8.5-27.4,8.5-22.7,0-43-7.5-43-25.9s21.6-26.1,43.3-26.1,15.1,1.4,22.4,3.2c.4,0,.6.2,1.3.2s.7-.5,1.4-.5c1.2,0,1.2,1,1.2,7.7v7.1c0,1.3-1.3,1.6-1.7,0-2.5-8.7-8.6-13.9-24.6-13.9s-26.2,8.5-26.2,22.2,10.8,21.9,26.2,21.9,13.1-.4,13.1-4.7v-6.6c0-1.6-.2-3.2-.7-4.3-1.2-2.3-5-2.5-6.8-2.7-1.8-.2-2-.5-2-.9,0-.6.7-.8,1.8-.8,3.7,0,7.7.2,14.7.2s11-.2,14.7-.2,1.9.3,1.9.8-.5.7-2,.9c-3.3.4-5.8.6-6.8,2.7-.5.8-.7,2.4-.7,4.3v6.8Z" fill="#d9d9d9"/>
      <path d="M182.2,65.5c-28.2,0-45-10.4-45-27.9s24.4-28.1,45.3-28.1,14.1,1,22.9,3.2h.1c.2,0,.3.1.4.1.4-.2.9-.4,1.7-.4,3.2,0,3.2,2.2,3.2,9.7v7.1c0,1.6-1,2.9-2.4,3.1-1.2.2-2.7-.5-3.2-2.4-1.9-6.5-5.9-12.4-22.7-12.4s-24.2,7.9-24.2,20.2,9.5,19.9,24.2,19.9,11.1-1.4,11.1-2.7v-6.6c0-2.2-.4-3.1-.5-3.4-.6-1.2-3.4-1.4-4.7-1.6h-.4c-.9-.1-3.8-.4-3.8-2.9s.4-2.8,3.8-2.8,3.2,0,5.1,0c2.6,0,5.6.1,9.6.1s7,0,9.6-.1c1.9,0,3.5,0,5.1,0,3.6,0,3.9,2.2,3.9,2.8,0,2.4-2.5,2.7-3.7,2.9-3,.3-4.8.6-5.3,1.6-.2.4-.5,1.6-.5,3.4v6.8c0,9.4-20.6,10.5-29.4,10.5ZM177.9,13.6c-17.9,1-36.7,7.6-36.7,24s3,23.9,41,23.9,25.4-3.3,25.4-6.5v-6.8c0-1.3.1-3.8,1-5.3.3-.5.6-.9,1-1.3-2,0-4.3,0-6.9,0s-5,0-7,0c.4.4.7.9,1,1.4.6,1.2.9,3,.9,5.2v6.6c0,5.8-9.5,6.7-15.1,6.7-16.9,0-28.2-9.6-28.2-23.9s9.3-22.4,23.6-24ZM187.4,41.5h0ZM193.1,14.3c6.5,1.4,11,4.3,13.7,9.1v-1.3c0-2.3,0-4.1,0-5.2-.2,0-.4,0-.6,0-.8,0-1.2,0-1.6-.2h-.1c-4.1-1-7.8-1.8-11.4-2.3Z" fill="#834ab0"/>
    </g>
    <g>
      <path d="M227.4,21.1c0-2.1-.3-3.2-.7-4.1-1.2-2.1-4.8-2.8-6.7-2.8s-2-.4-2-.9.7-.8,1.8-.8c3.7,0,7.7.2,14.7.2s11-.2,14.7-.2,1.9.4,1.9.8-.8.9-2,.9c-2,0-5.7.7-6.8,2.8-.4.9-.7,2.1-.7,4.1v32.8c0,2.2.3,3.3.7,4.2,1.2,2.1,4.9,2.8,6.8,2.8s2,.4,2,.9-.7.8-1.9.8c-3.7,0-7.7-.2-14.7-.2s-11,.2-14.7.2-1.8-.4-1.8-.8.7-.9,2-.9c2,0,5.6-.7,6.7-2.8.5-.9.7-2.1.7-4.2V21.1Z" fill="#d9d9d9"/>
      <path d="M249.1,64.6c-1.6,0-3.2,0-5.1,0-2.6,0-5.6-.1-9.6-.1s-7,0-9.6.1c-1.9,0-3.5,0-5.1,0-2.6,0-3.8-1.4-3.8-2.8s1-2.9,4-2.9,4.4-.7,5-1.7c.2-.5.5-1.3.5-3.3V21.1c0-1.9-.3-2.7-.5-3.2-.6-1-3.1-1.7-5-1.7-2.9,0-4-1.6-4-2.9s1.2-2.8,3.8-2.8,3.2,0,5.1,0c2.6,0,5.6.1,9.6.1s7,0,9.6-.1c1.9,0,3.5,0,5.1,0,2.7,0,3.9,1.4,3.9,2.8s-1.2,2.9-4,2.9-4.5.7-5.1,1.7c-.2.5-.5,1.3-.5,3.2v32.8c0,2,.3,2.8.5,3.3.6,1,3.2,1.7,5.1,1.7,2.8,0,4,1.5,4,2.9s-1.2,2.8-3.9,2.8ZM234.4,60.5c2.8,0,5.1,0,7.2,0-.5-.4-.9-.9-1.2-1.4h0c-.7-1.4-.9-2.9-.9-5.2V21.1c0-2.2.3-3.7.9-5h0c.3-.6.7-1.1,1.2-1.5-2,0-4.4,0-7.2,0s-5.1,0-7.1,0c.4.4.8.9,1.1,1.4h0c.7,1.4.9,2.9.9,5.1v32.8c0,2.3-.3,3.8-.9,5.1h0c-.3.6-.7,1.1-1.1,1.5,2,0,4.4,0,7.1,0Z" fill="#834ab0"/>
    </g>
    <g>
      <path d="M259.1,14.2c-1.4,0-2.4-.2-2.4-.9s.9-.9,2.2-.9c5.8,0,10.3.2,16.5.2s10.9-.2,19.4-.2,29.1.2,29.1,14.3-6.9,12.3-14.8,13.9c2,.8,3.4,2.4,5.4,4.9,7.8,10.4,13.3,15.4,21.1,15.4s2.3,1.5.3,1.8c-1.7.2-4,.4-9.5.4-12.5,0-16.5,0-30.6-19.2-1.9-2.2-4.2-2.3-5.8-2.3h-6.7c-1.1,0-1.3.3-1.3,1.4v8.3c0,8.8,4.7,9.5,9,9.6,1.3,0,2.4.2,2.4.9s-.9.9-2.2.9c-5.6,0-10.8-.2-16-.2s-11,.2-16.6.2-2.2-.3-2.2-.9,1.1-.8,2.4-.9c4.2-.3,9-.6,9-9.6v-27.4c0-8.8-4.4-9.4-8.7-9.5ZM295.5,37.6c7.2,0,13-3.4,13-10.9s-5.8-10.3-13-10.3h-5.9c-7.3,0-7.6,0-7.6,7.4v12.7c0,.8.3,1.2,1.3,1.2h12.3Z" fill="#d9d9d9"/>
      <path d="M326.2,65.1c-13.5,0-18-.8-32.2-19.9-1.2-1.3-2.6-1.6-4.3-1.6h-5.9v7.6c0,7.3,3.3,7.5,7.1,7.6,1.4,0,4.3.3,4.3,2.9s-.3,2.9-4.2,2.9-5.6,0-8.3,0c-2.6,0-5.2,0-7.7,0s-5.2,0-8,0c-2.8,0-5.7,0-8.6,0s-4.2-2.2-4.2-2.9c0-2.6,2.9-2.8,4.3-2.9,4.1-.3,7.1-.5,7.1-7.6v-27.4c0-7.3-3-7.4-6.8-7.5h0c-1.4,0-4.3-.3-4.3-2.9s.3-2.9,4.2-2.9,5.4,0,8,0c2.6,0,5.4,0,8.5,0s4.9,0,7.6,0c3.3,0,7.1-.1,11.8-.1,9.3,0,31.1,0,31.1,16.3s-4.1,12.2-12.2,14.8c.8.8,1.6,1.8,2.4,2.8,8.2,10.9,13.1,14.6,19.6,14.6s3.8,2.2,3.9,2.7c0,1.3-.9,2.8-3.3,3.1-1.9.2-4.3.4-9.8.4ZM336.1,63h0ZM291,39.6c1.6.1,4.1.7,6.1,3h.1c13.6,18.5,16.9,18.5,29,18.5s.8,0,1.2,0c-5-2.5-9.4-7.3-14.7-14.3-1.9-2.4-3.1-3.7-4.6-4.3l-6.2-2.5,6.6-1.3c9-1.7,13.2-5.5,13.2-11.9,0-9.9-11.4-12-23.6-12.3,4.8.3,12.3,2.2,12.3,12.3s-5.9,12.9-15,12.9h-4.4ZM266.7,14.5c1.8,1.6,3.1,4.4,3.1,9.3v27.4c0,4.9-1.4,7.7-3.3,9.3.2,0,.4,0,.5,0,2.8,0,5.5,0,8,0s5.2,0,7.8,0c0,0,.2,0,.3,0-1.9-1.6-3.3-4.4-3.3-9.3v-8.3c0-2.1.9-3.2,2.8-3.3-1.8-.2-2.8-1.3-2.8-3.1v-12.7c0-7.2,1-8.9,5.9-9.3-1,0-1.9,0-2.8,0-2.7,0-5.2,0-7.7,0s-5.9,0-8.5,0c0,0,0,0,0,0ZM283.9,35.6h11.6c3.3,0,11-.9,11-8.9s-3.1-8.3-11-8.3h-5.9c-2.2,0-4.7,0-5.2.4-.5.4-.5,3.3-.5,5v11.9Z" fill="#834ab0"/>
    </g>
    <g>
      <path d="M348.6,21.1c0-2.1-.3-3.2-.7-4.1-1.2-2.1-4.8-2.8-6.8-2.8s-2-.4-2-.9.7-.8,1.8-.8c3.7,0,7.7.2,14.7.2s11-.2,14.7-.2,1.9.4,1.9.8-.8.9-2,.9c-2,0-5.7.7-6.8,2.8-.4.9-.7,2.1-.7,4.1v32.8c0,2.2.3,3.3.7,4.2,1.2,2.1,4.9,2.8,6.8,2.8s2,.4,2,.9-.7.8-1.9.8c-3.7,0-7.7-.2-14.7-.2s-11,.2-14.7.2-1.8-.4-1.8-.8.7-.9,2-.9c2,0,5.6-.7,6.8-2.8.4-.9.7-2.1.7-4.2V21.1Z" fill="#d9d9d9"/>
      <path d="M370.3,64.6c-1.6,0-3.2,0-5.1,0-2.6,0-5.6-.1-9.6-.1s-7,0-9.6.1c-1.9,0-3.5,0-5.1,0-2.6,0-3.8-1.4-3.8-2.8s1-2.9,4-2.9,4.4-.7,5-1.7c.2-.5.5-1.3.5-3.3V21.1c0-1.9-.3-2.7-.5-3.2-.6-1-3.1-1.7-5-1.7-2.9,0-4-1.6-4-2.9s1.2-2.8,3.8-2.8,3.2,0,5.1,0c2.6,0,5.6.1,9.6.1s7,0,9.6-.1c1.9,0,3.5,0,5.1,0,2.7,0,3.9,1.4,3.9,2.8s-1.2,2.9-4,2.9-4.5.7-5.1,1.7c-.2.5-.5,1.3-.5,3.2v32.8c0,2,.3,2.8.5,3.3.6,1,3.2,1.7,5.1,1.7,2.8,0,4,1.5,4,2.9s-1.2,2.8-3.9,2.8ZM355.6,60.5c2.8,0,5.1,0,7.2,0-.5-.4-.9-.9-1.2-1.4h0c-.7-1.4-.9-2.9-.9-5.2V21.1c0-2.2.3-3.7.9-5h0c.3-.6.7-1.1,1.2-1.5-2,0-4.4,0-7.2,0s-5.1,0-7.1,0c.4.4.8.9,1.1,1.4h0c.7,1.4.9,2.9.9,5.1v32.8c0,2.3-.3,3.8-.9,5.1h0c-.3.6-.7,1.1-1.1,1.5,2,0,4.4,0,7.1,0Z" fill="#834ab0"/>
    </g>
    <g>
      <path d="M426.9,26.1c0,1.6-1.5,1.8-2,.2-2.3-7.8-11.8-9.8-21.5-9.8s-15.7.9-15.7,6.5c0,11.8,44.3,3.2,44.3,24.3s-15.8,16.3-30.2,16.3-18.8-2.8-22.2-3.4c-2-.4-1.3.7-2.2.7s-1.2-.4-1.4-2.9l-1.3-12.5c0-.7.3-1.2.9-1.2s.7.5,1,1.2c4.9,11.4,16.8,13.1,25.4,13.1s18.5-1.3,18.5-7.6c0-13.3-44.3-2.2-44.3-24s15.8-15.5,27.4-15.5,13,1,19.3,2.4c1.8.5,1.3-.7,2.2-.7s.9.2,1.2,3.3l.8,9.5Z" fill="#d9d9d9"/>
      <path d="M401.7,65.5c-11.1,0-16.5-1.7-20.1-2.8-1-.3-1.8-.6-2.5-.7h0c-.4.4-.9.8-1.9.8-2.9,0-3.3-3.3-3.4-4.7l-1.3-12.5c-.1-.9.1-1.8.7-2.4.5-.6,1.3-1,2.2-1,1.9,0,2.5,1.6,2.7,2.1v.2c3.5,8,11.2,11.9,23.6,11.9s16.5-.7,16.5-5.6-7.9-5.1-16.3-6.3c-12.5-1.7-27.9-3.7-27.9-17.8s5.1-17.5,29.4-17.5,12.9.9,18.2,2.1l1.4.3c.4-.4,1-.8,1.9-.8,2.7,0,3,2.9,3.2,5.2l.8,9.6c0,1.7-.9,3.1-2.4,3.4-1.6.3-3-.8-3.5-2.6-1.7-5.5-8.2-8.3-19.6-8.3s-13.7,1.2-13.7,4.5,8,4.6,15.7,5.9c12.7,2.1,28.6,4.6,28.6,18.4s-11.4,18.3-32.2,18.3ZM378.7,58c.3,0,.7,0,1.1.1.9.2,1.9.5,3,.8,3.3,1,8.4,2.6,18.9,2.6s28.2-1.9,28.2-14.3-10.9-12.2-25.2-14.5c-10.2-1.6-19-3.1-19-9.8s6.3-8.5,17.7-8.5,17.4,2.3,21.1,6.8l-.4-4.5c0-.3,0-.5,0-.7-.5,0-1.1,0-1.8-.1l-1.5-.3c-5.2-1.2-8.6-2-17.3-2s-25.4,2.3-25.4,13.5,10.1,11.9,24.5,13.8c10.2,1.4,19.8,2.6,19.8,10.2s-6.9,9.6-20.5,9.6-19.9-3.3-24.7-9.9l.8,7c0,.2,0,.3,0,.4.3,0,.6-.1.9-.1ZM376.4,45.2h0s0,0,0,0ZM424.9,26.2h0s0,0,0,0Z" fill="#834ab0"/>
    </g>
  </g>
  <g>
    <g>
      <path d="M59.4,26.1c0,1.6-1.5,1.8-2,.2-2.3-7.8-11.8-9.8-21.5-9.8s-15.7.9-15.7,6.5c0,11.8,44.3,3.2,44.3,24.3s-15.8,16.3-30.2,16.3-18.8-2.8-22.2-3.4c-2-.4-1.4.7-2.2.7s-1.2-.4-1.4-2.9l-1.4-12.5c0-.7.3-1.2.9-1.2s.7.5,1,1.2c4.9,11.4,16.8,13.1,25.4,13.1s18.5-1.3,18.5-7.6c0-13.3-44.3-2.2-44.3-24s15.8-15.5,27.4-15.5,13,1,19.3,2.4c1.8.5,1.4-.7,2.2-.7s.9.2,1.2,3.3l.8,9.5Z" fill="#d9d9d9"/>
      <path d="M34.2,64c-10.8,0-16.1-1.6-19.6-2.7-1.1-.3-1.9-.6-2.7-.7-.9-.2-1,0-1.2.2-.1.2-.4.5-1,.5-1.3,0-1.7-1.3-1.9-3.3l-1.4-12.5c0-.6.1-1.1.3-1.3.3-.3.6-.4,1.1-.4.9,0,1.1.7,1.3,1.2v.3c3.8,8.6,11.9,12.8,25,12.8s18-1.2,18-7.1-8.2-6.5-17.6-7.8c-12.5-1.7-26.6-3.6-26.6-16.3s15.2-16,27.9-16,12.5.8,17.9,2.1l1.5.4c.8.2.9,0,1.1-.2.2-.2.5-.6,1-.6,1.1,0,1.4.8,1.7,3.8l.8,9.6c0,1.1-.5,1.7-1.2,1.8-.6,0-1.5-.3-1.8-1.5-1.9-6.3-8.9-9.4-21-9.4s-15.2.6-15.2,6,7.8,5.9,16.9,7.3c12.2,2,27.3,4.4,27.3,16.9s-19.3,16.8-30.7,16.8ZM11.3,59.5c.2,0,.5,0,.8,0,.8.2,1.8.4,2.8.8,3.4,1.1,8.6,2.7,19.3,2.7s29.7-2.1,29.7-15.8-14.1-14-26.5-16c-9.5-1.5-17.8-2.9-17.8-8.3s10.2-7,16.2-7c12.6,0,20,3.4,22,10.2.2.6.5.8.7.8.2,0,.3-.3.3-.8l-.8-9.5c-.2-2.5-.5-2.8-.6-2.9,0,0,0,0-.1,0s-.1,0-.3.2c-.4.4-.8.8-2.1.5l-1.5-.3c-5.3-1.2-8.8-2.1-17.6-2.1s-26.9,2.6-26.9,15,13.7,13.7,25.8,15.3c9.9,1.3,18.5,2.5,18.5,8.7s-6.4,8.1-19,8.1-22-4.5-25.8-13.4c0-.1,0-.2-.1-.3-.2-.6-.3-.6-.4-.6s-.3,0-.3.1c0,0-.1.3,0,.5l1.4,12.5c.3,2.4.7,2.4.9,2.4s0,0,.2-.1c.2-.3.6-.7,1.4-.7Z"/>
    </g>
    <g>
      <path d="M117,48.1h-32.5l-2.7,4c-.8,1.2-2.7,4-2.7,6s1,2.8,4.2,2.8,1.9.4,1.9.8-.6.9-1.8.9c-3.8,0-7.5-.2-11.1-.2s-7.6.2-11.4.2-1.8-.5-1.8-.9.6-.8,1.8-.8c5.5,0,8.2-2.2,13.9-10.6l22.4-32.8c-1.3-2.2-4.8-3.4-7-3.4s-1.9-.5-1.9-.9.7-.8,1.8-.8h11.7c5.6,0,8.1,1.4,10.4,5l21.5,32.4c2.8,4.2,7.8,11.1,12.4,11.1s1.8.5,1.8,1-.6.7-1.8.7c-4.6,0-9.2-.2-13.8-.2s-9.4.2-14.1.2-1.7-.3-1.7-.8.5-.9,1.7-.9c1.9,0,4.3-.5,4.3-2.7s-.5-2.4-3-6.1l-2.7-4ZM87.9,43h25.8l-12.9-19.6-13,19.6Z" fill="#d9d9d9"/>
      <path d="M146.3,63.1c-2.3,0-4.6,0-6.9,0-4.5,0-9.3,0-13.9,0-2.3,0-4.7,0-7.1,0s-2.2-.4-2.2-1.3.8-1.4,2.2-1.4,3.8-.4,3.8-2.2-.5-2.2-2.9-5.8l-2.6-3.8h-32l-2.6,3.8c-1.7,2.4-2.6,4.5-2.6,5.8s0,2.3,3.7,2.3,2.4.5,2.4,1.3-.7,1.4-2.3,1.4-3.8,0-5.7,0c-1.8,0-3.6,0-5.4,0s-3.8,0-5.7,0c-1.9,0-3.8,0-5.7,0s-2.3-.7-2.3-1.4.8-1.3,2.3-1.3c5.2,0,7.8-2,13.5-10.4l22.2-32.5c-1.2-1.7-4.3-2.9-6.4-2.9s-2.4-.6-2.4-1.4.9-1.3,2.3-1.3h11.7c5.5,0,8.3,1.4,10.9,5.3l21.5,32.4c4.7,7.2,8.8,10.8,12,10.8s2.3.7,2.3,1.5-.3,1.2-2.3,1.2ZM132.5,62c2.3,0,4.6,0,6.9,0,2.3,0,4.6,0,6.9,0s1.3-.2,1.3-.2c0-.2-.4-.5-1.3-.5-3.6,0-7.9-3.8-12.8-11.3l-21.5-32.4c-2.3-3.6-4.9-4.8-10-4.8h-11.7c-.9,0-1.3.2-1.3.3,0,0,.4.4,1.4.4,2.6,0,6.1,1.4,7.5,3.7l.2.3-22.6,33c-5.9,8.6-8.7,10.7-14.4,10.8-.9,0-1.3.3-1.3.4,0,0,.4.3,1.3.3,1.9,0,3.8,0,5.7,0,1.9,0,3.8,0,5.7,0s3.6,0,5.4,0c1.8,0,3.8,0,5.7,0s1.3-.3,1.3-.4c0,0-.5-.3-1.4-.3-3.9,0-4.7-1.8-4.7-3.3s1.5-4.5,2.8-6.3l2.8-4.3h33l2.8,4.3c2.6,3.9,3.1,5.2,3.1,6.4,0,2.1-1.7,3.2-4.8,3.2s-1.2.4-1.2.4c0,.2.5.3,1.2.3,2.4,0,4.8,0,7.1,0,2.3,0,4.7,0,7,0ZM114.6,43.5h-27.7l13.9-21,13.8,21ZM88.8,42.5h24l-11.9-18.2-12,18.2Z"/>
    </g>
    <g>
      <path d="M209.5,55.1c0,7.7-21.5,8.5-27.4,8.5-22.7,0-43-7.5-43-25.9s21.6-26.1,43.3-26.1,15.1,1.4,22.4,3.2c.4,0,.6.2,1.3.2s.7-.5,1.4-.5c1.2,0,1.2,1,1.2,7.7v7.1c0,1.3-1.3,1.6-1.7,0-2.5-8.7-8.6-13.9-24.6-13.9s-26.2,8.5-26.2,22.2,10.8,21.9,26.2,21.9,13.1-.4,13.1-4.7v-6.6c0-1.6-.2-3.2-.7-4.3-1.2-2.3-5-2.5-6.8-2.7-1.8-.2-2-.5-2-.9,0-.6.7-.8,1.8-.8,3.7,0,7.7.2,14.7.2s11-.2,14.7-.2,1.9.3,1.9.8-.5.7-2,.9c-3.3.4-5.8.6-6.8,2.7-.5.8-.7,2.4-.7,4.3v6.8Z" fill="#d9d9d9"/>
      <path d="M182.1,64c-27.2,0-43.5-9.9-43.5-26.4s23.6-26.6,43.8-26.6,13.9,1,22.5,3.2h.1c.3.1.5.2,1,.2s.2,0,.4-.1c.2-.1.5-.3,1-.3,1.7,0,1.7,1.1,1.7,8.2v7.1c0,.8-.5,1.5-1.1,1.6-.5,0-1.2-.2-1.6-1.4-2.8-9.6-9.7-13.5-24.1-13.5s-25.7,8.7-25.7,21.7,10.1,21.4,25.7,21.4,12.6-1.1,12.6-4.2v-6.6c0-1.8-.2-3.2-.7-4.1-1-1.9-4.1-2.2-5.9-2.4h-.4c-1.5-.2-2.4-.5-2.4-1.4s1.7-1.3,2.3-1.3c1.6,0,3.2,0,5.1,0,2.6,0,5.6.1,9.6.1s7,0,9.6-.1c1.9,0,3.5,0,5.1,0s2.4.4,2.4,1.3-1.2,1.2-2.4,1.4c-3.2.3-5.5.6-6.5,2.4-.4.7-.7,2.3-.7,4.1v6.8c0,8.5-23.3,9-27.9,9ZM182.4,12c-19.7,0-42.8,6.7-42.8,25.6s15.9,25.4,42.5,25.4,9.3,0,15.9-1.3c5.1-.9,11.1-2.9,11.1-6.6v-6.8c0-2,.3-3.7.8-4.6,1.2-2.3,3.9-2.6,7.2-3,1.2-.1,1.5-.3,1.5-.4,0-.2-.4-.3-1.4-.3-1.6,0-3.2,0-5,0-2.6,0-5.6.1-9.6.1s-7,0-9.6-.1c-1.9,0-3.5,0-5,0s-1.3.1-1.3.3c0,0,.2.3,1.5.4h.4c2.1.2,5.5.5,6.7,3,.5,1,.8,2.6.8,4.5v6.6c0,4.8-10.4,5.2-13.6,5.2-16.2,0-26.7-8.8-26.7-22.4s10.7-22.7,26.7-22.7,22.2,4.3,25,14.2c.1.5.4.7.5.6.1,0,.3-.2.3-.6v-7.1c0-5.9,0-7.2-.7-7.2s-.3,0-.5.2c-.2.1-.5.3-.9.3s-.9,0-1.3-.2h-.1c-8.5-2.1-15.8-3.2-22.3-3.2Z"/>
    </g>
    <g>
      <path d="M227.3,21.1c0-2.1-.3-3.2-.7-4.1-1.2-2.1-4.8-2.8-6.7-2.8s-2-.4-2-.9.7-.8,1.8-.8c3.7,0,7.7.2,14.7.2s11-.2,14.7-.2,1.9.4,1.9.8-.8.9-2,.9c-2,0-5.7.7-6.8,2.8-.4.9-.7,2.1-.7,4.1v32.8c0,2.2.3,3.3.7,4.2,1.2,2.1,4.9,2.8,6.8,2.8s2,.4,2,.9-.7.8-1.9.8c-3.7,0-7.7-.2-14.7-.2s-11,.2-14.7.2-1.8-.4-1.8-.8.7-.9,2-.9c2,0,5.6-.7,6.7-2.8.5-.9.7-2.1.7-4.2V21.1Z" fill="#d9d9d9"/>
      <path d="M249,63.1c-1.6,0-3.2,0-5.1,0-2.6,0-5.6-.1-9.6-.1s-7,0-9.6.1c-1.9,0-3.5,0-5.1,0s-2.3-.5-2.3-1.3.2-1.4,2.5-1.4,5.3-.7,6.3-2.5c.5-.9.7-2.1.7-4V21.1c0-1.8-.2-3-.7-3.9-1-1.8-4.4-2.5-6.3-2.5s-2.5-1.1-2.5-1.4c0-.8.9-1.3,2.3-1.3s3.2,0,5.1,0c2.6,0,5.6.1,9.6.1s7,0,9.6-.1c1.9,0,3.5,0,5.1,0s2.4.5,2.4,1.3-1,1.4-2.5,1.4-5.4.8-6.4,2.5c-.5.9-.7,2.1-.7,3.9v32.8c0,1.9.2,3.1.7,4,1,1.7,4.3,2.5,6.4,2.5s2.5.5,2.5,1.4-.9,1.3-2.4,1.3ZM234.3,62c4,0,7,0,9.6.1,1.9,0,3.5,0,5,0s1.3-.2,1.4-.3c0,0-.4-.4-1.5-.4-2.2,0-6-.8-7.3-3-.6-1.1-.8-2.4-.8-4.5V21.1c0-2,.2-3.3.8-4.4,1.3-2.3,5.1-3.1,7.3-3.1s1.5-.3,1.5-.4c0,0-.5-.3-1.4-.3-1.6,0-3.2,0-5,0-2.6,0-5.6.1-9.6.1s-7,0-9.6-.1c-1.9,0-3.5,0-5,0s-1.3.2-1.3.3c0,0,.4.4,1.5.4,2.2,0,5.9.8,7.2,3,.6,1.1.8,2.4.8,4.4v32.8c0,2-.2,3.4-.8,4.5-1.3,2.3-5,3.1-7.2,3.1s-1.5.3-1.5.4c0,0,.4.3,1.3.3,1.6,0,3.2,0,5,0,2.6,0,5.6-.1,9.6-.1Z"/>
    </g>
    <g>
      <path d="M258.9,14.2c-1.4,0-2.4-.2-2.4-.9s.9-.9,2.2-.9c5.8,0,10.3.2,16.5.2s10.9-.2,19.4-.2,29.1.2,29.1,14.3-6.9,12.3-14.8,13.9c2,.8,3.4,2.4,5.4,4.9,7.8,10.4,13.3,15.4,21.1,15.4s2.3,1.5.3,1.8c-1.7.2-4,.4-9.5.4-12.5,0-16.5,0-30.6-19.2-1.9-2.2-4.2-2.3-5.8-2.3h-6.7c-1.1,0-1.3.3-1.3,1.4v8.3c0,8.8,4.7,9.5,9,9.6,1.3,0,2.4.2,2.4.9s-.9.9-2.2.9c-5.6,0-10.8-.2-16-.2s-11,.2-16.6.2-2.2-.3-2.2-.9,1.1-.8,2.4-.9c4.2-.3,9-.6,9-9.6v-27.4c0-8.8-4.4-9.4-8.7-9.5ZM295.3,37.6c7.2,0,13-3.4,13-10.9s-5.8-10.3-13-10.3h-5.9c-7.3,0-7.6,0-7.6,7.4v12.7c0,.8.3,1.2,1.3,1.2h12.3Z" fill="#d9d9d9"/>
      <path d="M326.1,63.6c-12.5,0-16.7,0-31-19.4-1.6-1.9-3.7-2.1-5.4-2.1h-6.7q-.8,0-.8.9v8.3c0,8.1,3.9,8.9,8.5,9.1,1.4,0,2.9.2,2.9,1.4s-.5,1.4-2.7,1.4-5.6,0-8.3,0c-2.6,0-5.2,0-7.7,0s-5.3,0-8,0c-2.8,0-5.7,0-8.6,0s-2.7-.8-2.7-1.4c0-1.2,1.5-1.3,2.9-1.4,4.2-.3,8.5-.5,8.5-9.1v-27.4c0-8.7-4.4-8.9-8.2-9h0c-1.4,0-2.9-.2-2.9-1.4s.5-1.4,2.7-1.4,5.3,0,8,0c2.6,0,5.4,0,8.5,0s4.9,0,7.6,0c3.3,0,7.1-.1,11.8-.1,8.8,0,29.6,0,29.6,14.8s-4.7,11.9-13.9,14.1c1.6,1,2.9,2.6,4.3,4.4,7.4,9.9,12.9,15.2,20.8,15.2s2.3,1,2.4,1.2c0,.6-.6,1.4-2,1.5-1.8.2-4.2.4-9.6.4ZM283,41.1h6.7c1.9,0,4.3.3,6.2,2.5,14.1,19,17.8,19,30.2,19s7.7-.2,9.5-.4c.8-.1,1.1-.4,1.1-.5,0,0-.4-.3-1.4-.3-8.3,0-14-5.5-21.5-15.6-2.1-2.7-3.4-4.1-5.2-4.8l-1.6-.6,1.6-.3c9.7-1.9,14.4-6.3,14.4-13.4,0-13.8-19.3-13.8-28.6-13.8s-8.5,0-11.8.1c-2.7,0-5.1,0-7.6,0s-5.8,0-8.5,0c-2.6,0-5.1,0-8,0s-1.7.3-1.7.4c0,.3,1.3.4,2,.4,4.9.2,9.2,1.1,9.2,10v27.4c0,9.5-5.2,9.9-9.5,10.1-.6,0-2,.1-2,.4s.4.4,1.7.4c2.8,0,5.7,0,8.5,0,2.7,0,5.4,0,8,0s5.1,0,7.8,0c2.7,0,5.4,0,8.3,0s1.7-.3,1.7-.4c0-.3-1.3-.4-2-.4-4.8-.2-9.5-1.1-9.5-10.1v-8.3c0-1.2.3-1.9,1.8-1.9ZM295.3,38.1h-12.3c-1.2,0-1.8-.5-1.8-1.7v-12.7c0-7.7.7-7.9,8.1-7.9h5.9c6.3,0,13.5,1.2,13.5,10.8s-5.2,11.4-13.5,11.4ZM289.4,16.9q-7.1,0-7.1,6.9v12.7c0,.5,0,.7.8.7h12.3c7.9,0,12.5-3.9,12.5-10.4s-3.8-9.8-12.5-9.8h-5.9Z"/>
    </g>
    <g>
      <path d="M348.4,21.1c0-2.1-.3-3.2-.7-4.1-1.2-2.1-4.8-2.8-6.8-2.8s-2-.4-2-.9.7-.8,1.8-.8c3.7,0,7.7.2,14.7.2s11-.2,14.7-.2,1.9.4,1.9.8-.8.9-2,.9c-2,0-5.7.7-6.8,2.8-.4.9-.7,2.1-.7,4.1v32.8c0,2.2.3,3.3.7,4.2,1.2,2.1,4.9,2.8,6.8,2.8s2,.4,2,.9-.7.8-1.9.8c-3.7,0-7.7-.2-14.7-.2s-11,.2-14.7.2-1.8-.4-1.8-.8.7-.9,2-.9c2,0,5.6-.7,6.8-2.8.4-.9.7-2.1.7-4.2V21.1Z" fill="#d9d9d9"/>
      <path d="M370.1,63.1c-1.6,0-3.2,0-5.1,0-2.6,0-5.6-.1-9.6-.1s-7,0-9.6.1c-1.9,0-3.5,0-5.1,0s-2.3-.5-2.3-1.3.2-1.4,2.5-1.4,5.3-.7,6.3-2.5c.5-.9.7-2.1.7-4V21.1c0-1.8-.2-3-.7-3.9-1-1.8-4.4-2.5-6.3-2.5s-2.5-1.1-2.5-1.4c0-.8.9-1.3,2.3-1.3s3.2,0,5.1,0c2.6,0,5.6.1,9.6.1s7,0,9.6-.1c1.9,0,3.5,0,5.1,0s2.4.5,2.4,1.3-1,1.4-2.5,1.4-5.4.8-6.4,2.5c-.5.9-.7,2.1-.7,3.9v32.8c0,1.9.2,3.1.7,4,1,1.7,4.3,2.5,6.4,2.5s2.5.5,2.5,1.4-.9,1.3-2.4,1.3ZM355.4,62c4,0,7,0,9.6.1,1.9,0,3.5,0,5,0s1.3-.2,1.4-.3c0,0-.4-.4-1.5-.4-2.2,0-6-.8-7.3-3-.6-1.1-.8-2.4-.8-4.5V21.1c0-2,.2-3.3.8-4.4,1.3-2.3,5.1-3.1,7.3-3.1s1.5-.3,1.5-.4c0,0-.5-.3-1.4-.3-1.6,0-3.2,0-5,0-2.6,0-5.6.1-9.6.1s-7,0-9.6-.1c-1.9,0-3.5,0-5,0s-1.3.2-1.3.3c0,0,.4.4,1.5.4,2.2,0,5.9.8,7.2,3,.6,1.1.8,2.4.8,4.4v32.8c0,2-.2,3.4-.8,4.5-1.3,2.3-5,3.1-7.2,3.1s-1.5.3-1.5.4c0,0,.4.3,1.3.3,1.6,0,3.2,0,5,0,2.6,0,5.6-.1,9.6-.1Z"/>
    </g>
    <g>
      <path d="M426.7,26.1c0,1.6-1.5,1.8-2,.2-2.3-7.8-11.8-9.8-21.5-9.8s-15.7.9-15.7,6.5c0,11.8,44.3,3.2,44.3,24.3s-15.8,16.3-30.2,16.3-18.8-2.8-22.2-3.4c-2-.4-1.3.7-2.2.7s-1.2-.4-1.4-2.9l-1.3-12.5c0-.7.3-1.2.9-1.2s.7.5,1,1.2c4.9,11.4,16.8,13.1,25.4,13.1s18.5-1.3,18.5-7.6c0-13.3-44.3-2.2-44.3-24s15.8-15.5,27.4-15.5,13,1,19.3,2.4c1.8.5,1.3-.7,2.2-.7s.9.2,1.2,3.3l.8,9.5Z" fill="#d9d9d9"/>
      <path d="M401.5,64c-10.8,0-16.1-1.6-19.6-2.7-1.1-.3-1.9-.6-2.7-.7-.9-.2-1,0-1.2.2-.1.2-.4.5-1,.5-1.3,0-1.7-1.3-1.9-3.3l-1.3-12.5c0-.6.1-1.1.3-1.3.3-.3.6-.4,1.1-.4.9,0,1.1.7,1.3,1.2v.3c3.8,8.6,11.9,12.8,25,12.8s18-1.2,18-7.1-8.2-6.5-17.6-7.8c-12.5-1.7-26.6-3.6-26.6-16.3s15.2-16,27.9-16,12.5.8,17.9,2.1l1.5.4c.8.2.9,0,1.1-.2.2-.2.5-.6,1-.6,1.1,0,1.4.8,1.7,3.8l.8,9.6c0,1.1-.5,1.7-1.2,1.8-.6,0-1.5-.3-1.8-1.5-1.9-6.3-8.9-9.4-21-9.4s-15.2.6-15.2,6,7.8,5.9,16.9,7.3c12.2,2,27.3,4.4,27.3,16.9s-19.3,16.8-30.7,16.8ZM378.6,59.5c.2,0,.5,0,.8,0,.8.2,1.8.4,2.8.8,3.4,1.1,8.6,2.7,19.3,2.7s29.7-2.1,29.7-15.8-14.1-14-26.5-16c-9.5-1.5-17.8-2.9-17.8-8.3s10.2-7,16.2-7c12.6,0,20,3.4,22,10.2.2.6.5.8.7.8.2,0,.3-.3.3-.8l-.8-9.5c-.2-2.5-.5-2.8-.6-2.9,0,0,0,0-.1,0s-.1,0-.3.2c-.4.4-.8.8-2.1.5l-1.5-.3c-5.3-1.2-8.8-2.1-17.6-2.1s-26.9,2.6-26.9,15,13.7,13.7,25.8,15.3c9.9,1.3,18.5,2.5,18.5,8.7s-6.4,8.1-19,8.1-22-4.5-25.8-13.4c0-.1,0-.2-.1-.3-.2-.6-.3-.6-.4-.6s-.3,0-.3.1c0,0-.1.3,0,.5l1.4,12.5c.3,2.4.7,2.4.9,2.4s0,0,.2-.1c.2-.3.6-.7,1.4-.7Z"/>
    </g>
  </g>
</svg>