<?xml version="1.0" encoding="UTF-8"?>
<svg id="Layer_2" data-name="Layer 2" xmlns="http://www.w3.org/2000/svg" viewBox="0 0 428.81 56.02">
  <defs>
    <style>
      .cls-1 {
        fill: #d9d9d9;
      }

      .cls-2 {
        fill: #834ab0;
      }
    </style>
  </defs>
  <g id="Sagiris">
    <g>
      <g>
        <path class="cls-1" d="M54.48,16.58c.09,1.62-1.53,1.8-1.98.18-2.34-7.83-11.79-9.81-21.51-9.81-5.85,0-15.75.9-15.75,6.48,0,11.79,44.28,3.15,44.28,24.3,0,12.96-15.84,16.29-30.24,16.29s-18.81-2.79-22.23-3.42c-1.98-.36-1.35.72-2.25.72-.63,0-1.17-.36-1.44-2.88l-1.35-12.51c-.09-.72.27-1.17.9-1.17s.72.54.99,1.17c4.86,11.43,16.83,13.14,25.38,13.14s18.54-1.35,18.54-7.56c0-13.32-44.28-2.16-44.28-24.03C3.55,4.34,19.39,2,30.99,2c9.72,0,13.05.99,19.26,2.43,1.8.45,1.35-.72,2.25-.72.54,0,.9.18,1.17,3.33l.81,9.54Z"/>
        <path class="cls-2" d="M29.28,56.02c-11.07,0-16.48-1.66-20.06-2.76-1.03-.31-1.84-.56-2.53-.69,0,0-.01,0-.02,0-.36.36-.95.76-1.87.76-2.93,0-3.28-3.27-3.43-4.67L.03,36.14c-.11-.91.13-1.79.7-2.43.54-.62,1.32-.95,2.19-.95,1.89,0,2.52,1.61,2.73,2.14l.1.24c3.41,8.03,11.11,11.93,23.54,11.93,6.18,0,16.54-.72,16.54-5.56,0-4.09-7.93-5.15-16.33-6.27-12.45-1.66-27.95-3.73-27.95-17.76C1.55,9.51,6.65,0,30.99,0c9.14,0,12.95.89,18.22,2.13l1.42.33c.37-.35.98-.75,1.88-.75,2.72,0,2.97,2.86,3.16,5.16l.81,9.6c.1,1.74-.9,3.13-2.41,3.38-1.56.26-3-.79-3.49-2.56-1.65-5.52-8.24-8.34-19.58-8.34-6.34,0-13.75,1.17-13.75,4.48s7.97,4.62,15.68,5.87c12.74,2.06,28.6,4.62,28.6,18.43,0,11.79-11.45,18.29-32.24,18.29ZM6.35,48.53c.33,0,.68.04,1.06.1.93.17,1.88.46,2.99.8,3.35,1.03,8.41,2.58,18.88,2.58s28.24-1.86,28.24-14.29c0-9.64-10.94-12.17-25.24-14.48-10.22-1.65-19.04-3.07-19.04-9.82,0-5.47,6.3-8.48,17.75-8.48,10.32,0,17.38,2.27,21.07,6.77l-.38-4.51c-.02-.28-.05-.52-.07-.74-.5.1-1.1.08-1.84-.1l-1.47-.34c-5.19-1.22-8.62-2.03-17.3-2.03-11.61,0-25.45,2.34-25.45,13.48,0,9.78,10.15,11.89,24.48,13.8,10.18,1.36,19.8,2.64,19.8,10.23,0,6.34-6.91,9.56-20.54,9.56-11.61,0-19.89-3.32-24.69-9.88l.76,7.03c.02.15.03.29.05.42.29-.08.6-.12.95-.12ZM4,35.68h0s0,0,0,0ZM52.49,16.71s0,0,0,0h0Z"/>
      </g>
      <g>
        <path class="cls-1" d="M112.08,38.54h-32.49l-2.7,4.05c-.81,1.17-2.7,4.05-2.7,6.03,0,1.53.99,2.79,4.23,2.79,1.17,0,1.89.36,1.89.81s-.63.9-1.8.9c-3.78,0-7.47-.18-11.07-.18-3.78,0-7.65.18-11.43.18-1.17,0-1.8-.45-1.8-.9,0-.36.63-.81,1.8-.81,5.49-.09,8.19-2.25,13.95-10.62l22.41-32.76c-1.26-2.16-4.77-3.42-7.02-3.42-1.17,0-1.89-.45-1.89-.9s.72-.81,1.8-.81h11.7c5.58,0,8.1,1.44,10.44,5.04l21.51,32.4c2.79,4.23,7.83,11.07,12.42,11.07,1.17,0,1.8.45,1.8.99,0,.45-.63.72-1.8.72-4.59,0-9.18-.18-13.77-.18s-9.36.18-14.13.18c-1.17,0-1.71-.27-1.71-.81,0-.36.54-.9,1.71-.9,1.89,0,4.32-.45,4.32-2.7,0-1.08-.54-2.43-2.97-6.12l-2.7-4.05ZM82.92,33.5h25.83l-12.87-19.62-12.96,19.62Z"/>
        <path class="cls-2" d="M141.33,55.12c-2.31,0-4.66-.05-6.92-.09-4.53-.09-9.27-.09-13.8,0-2.34.04-4.75.09-7.17.09-3.44,0-3.71-2.15-3.71-2.81,0-1.41,1.3-2.9,3.71-2.9.09,0,2.32,0,2.32-.7s-.81-2.25-2.64-5.02l-2.1-3.15h-30.35l-2.11,3.16c-1.75,2.53-2.36,4.19-2.36,4.92,0,.52.75.79,2.23.79,2.69,0,3.89,1.41,3.89,2.81s-1.19,2.9-3.8,2.9c-1.94,0-3.86-.05-5.72-.09-1.81-.04-3.59-.09-5.35-.09-1.87,0-3.8.04-5.67.09-1.89.04-3.85.09-5.76.09-2.61,0-3.8-1.5-3.8-2.9s1.31-2.81,3.8-2.81c4.37-.07,6.53-1.36,12.3-9.75l21.54-31.48c-1.17-.92-3.11-1.56-4.5-1.56-2.55,0-3.89-1.46-3.89-2.9s1.17-2.81,3.8-2.81h11.7c6.01,0,9.3,1.61,12.12,5.95l21.5,32.38c5.84,8.85,9.24,10.18,10.75,10.18,2.61,0,3.8,1.55,3.8,2.99,0,.45-.18,2.72-3.8,2.72ZM78.52,36.54h34.63l3.29,4.94c2.53,3.85,3.31,5.54,3.31,7.23,0,.48-.09,1.43-.66,2.35.48,0,.96-.02,1.44-.03,4.58-.09,9.4-.09,13.96,0,.32,0,.65.01.98.02-2.55-1.96-5.28-5.15-8.22-9.61l-21.51-32.39c-1.83-2.81-3.6-4.15-8.77-4.15h-4.81c.79.59,1.46,1.29,1.95,2.12l.64,1.09-23.12,33.8c-3,4.36-5.31,7.26-7.76,9.06,2.99-.06,5.96-.03,9.01.05-.58-.94-.66-1.92-.66-2.41,0-1.83,1.03-4.24,3.05-7.17l3.27-4.91ZM112.46,35.5h-33.25l16.68-25.26,16.57,25.26ZM86.64,31.5h18.41l-9.17-13.98-9.24,13.98Z"/>
      </g>
      <g>
        <path class="cls-1" d="M204.6,45.56c0,7.74-21.51,8.46-27.45,8.46-22.68,0-43.02-7.47-43.02-25.92S155.73,2,177.42,2c7.47,0,15.12,1.35,22.41,3.15.36.09.63.18,1.26.18s.72-.45,1.44-.45c1.17,0,1.17.99,1.17,7.65v7.11c0,1.26-1.26,1.62-1.71.09-2.52-8.73-8.64-13.86-24.57-13.86s-26.19,8.55-26.19,22.23,10.8,21.87,26.19,21.87c2.97,0,13.14-.36,13.14-4.68v-6.57c0-1.62-.18-3.24-.72-4.32-1.17-2.34-4.95-2.52-6.75-2.7-1.8-.18-1.98-.54-1.98-.9,0-.63.72-.81,1.8-.81,3.69,0,7.74.18,14.67.18s10.98-.18,14.67-.18c1.26,0,1.89.27,1.89.81s-.54.72-1.98.9c-3.33.36-5.76.63-6.84,2.7-.45.81-.72,2.43-.72,4.32v6.84Z"/>
        <path class="cls-2" d="M177.15,56.02c-28.19,0-45.02-10.44-45.02-27.92,0-20.74,24.4-28.1,45.29-28.1,6.66,0,14.14,1.05,22.89,3.21l.14.03c.17.04.27.07.42.08.36-.2.9-.44,1.67-.44,3.17,0,3.17,2.24,3.17,9.65v7.11c0,1.6-.99,2.87-2.41,3.07-1.21.18-2.66-.51-3.22-2.42-1.86-6.46-5.9-12.42-22.65-12.42-14.69,0-24.19,7.94-24.19,20.23s9.49,19.87,24.19,19.87c6.56,0,11.14-1.41,11.14-2.68v-6.57c0-2.17-.36-3.12-.51-3.42-.59-1.18-3.39-1.44-4.73-1.57l-.43-.04c-.94-.09-3.78-.38-3.78-2.89,0-.84.37-2.81,3.8-2.81,1.57,0,3.2.03,5.09.07,2.62.05,5.59.11,9.58.11s6.96-.06,9.58-.11c1.89-.04,3.52-.07,5.09-.07,3.61,0,3.89,2.15,3.89,2.81,0,2.42-2.52,2.73-3.73,2.88-3.03.33-4.75.56-5.32,1.64-.21.39-.49,1.56-.49,3.39v6.84c0,9.44-20.59,10.46-29.45,10.46ZM172.84,4.12c-17.85.95-36.7,7.6-36.7,23.98,0,5.61,2.96,23.92,41.02,23.92,16.53,0,25.45-3.33,25.45-6.46v-6.84c0-1.32.13-3.77.97-5.29.27-.51.59-.95.95-1.32-1.97.03-4.25.06-6.94.06s-4.99-.03-6.97-.06c.4.39.75.85,1.02,1.4.62,1.23.93,2.99.93,5.21v6.57c0,5.81-9.49,6.68-15.14,6.68-16.86,0-28.19-9.59-28.19-23.87,0-13.14,9.31-22.37,23.6-23.98ZM187.98,4.82c6.54,1.38,10.96,4.31,13.73,9.06v-1.35c0-2.27,0-4.12-.06-5.25-.17.03-.35.05-.55.05-.75,0-1.19-.1-1.64-.21l-.11-.03c-4.07-1-7.84-1.76-11.37-2.27Z"/>
      </g>
      <g>
        <path class="cls-1" d="M222.33,11.54c0-2.07-.27-3.24-.72-4.14-1.17-2.07-4.77-2.79-6.75-2.79-1.26,0-1.98-.36-1.98-.9,0-.45.72-.81,1.8-.81,3.69,0,7.74.18,14.67.18s10.98-.18,14.67-.18c1.17,0,1.89.36,1.89.81,0,.54-.81.9-1.98.9-1.98,0-5.67.72-6.84,2.79-.45.9-.72,2.07-.72,4.14v32.85c0,2.16.27,3.33.72,4.23,1.17,2.07,4.86,2.79,6.84,2.79,1.17,0,1.98.36,1.98.9,0,.45-.72.81-1.89.81-3.69,0-7.74-.18-14.67-.18s-10.98.18-14.67.18c-1.08,0-1.8-.36-1.8-.81,0-.54.72-.9,1.98-.9,1.98,0,5.58-.72,6.75-2.79.45-.9.72-2.07.72-4.23V11.54Z"/>
        <path class="cls-2" d="M244.02,55.12c-1.57,0-3.2-.03-5.09-.07-2.62-.05-5.59-.11-9.58-.11s-6.96.06-9.58.11c-1.89.04-3.52.07-5.09.07-2.62,0-3.8-1.41-3.8-2.81s1.04-2.9,3.98-2.9c1.87,0,4.36-.71,4.99-1.74.23-.48.48-1.3.48-3.28V11.54c0-1.9-.25-2.71-.48-3.19-.63-1.03-3.11-1.74-4.99-1.74-2.94,0-3.98-1.56-3.98-2.9s1.17-2.81,3.8-2.81c1.57,0,3.2.03,5.09.07,2.62.05,5.59.11,9.58.11s6.96-.06,9.58-.11c1.89-.04,3.52-.07,5.09-.07,2.69,0,3.89,1.41,3.89,2.81s-1.23,2.9-3.98,2.9c-1.91,0-4.46.74-5.08,1.74-.23.48-.48,1.29-.48,3.19v32.85c0,1.98.25,2.8.48,3.28.62,1,3.17,1.74,5.08,1.74,2.75,0,3.98,1.46,3.98,2.9s-1.2,2.81-3.89,2.81ZM229.35,50.94c2.78,0,5.14.03,7.15.06-.46-.4-.85-.87-1.15-1.4l-.05-.09c-.65-1.31-.93-2.84-.93-5.12V11.54c0-2.22.28-3.73.93-5.03l.05-.09c.3-.53.7-1,1.15-1.4-2.02.04-4.37.06-7.15.06s-5.12-.03-7.14-.06c.45.4.83.87,1.14,1.4l.05.09c.65,1.31.93,2.81.93,5.04v32.85c0,2.29-.28,3.82-.93,5.12l-.05.09c-.3.53-.69,1-1.14,1.4,2.01-.03,4.36-.06,7.14-.06Z"/>
      </g>
      <g>
        <path class="cls-1" d="M254.01,4.7c-1.35-.09-2.43-.18-2.43-.9,0-.63.9-.9,2.16-.9,5.76,0,10.35.18,16.47.18,5.58,0,10.89-.18,19.44-.18,9.72,0,29.07.18,29.07,14.31,0,8.73-6.93,12.33-14.85,13.86,1.98.81,3.42,2.43,5.4,4.95,7.83,10.44,13.32,15.39,21.15,15.39,2.52,0,2.34,1.53.27,1.8-1.71.18-4.05.36-9.54.36-12.51,0-16.47-.09-30.6-19.17-1.89-2.16-4.23-2.34-5.85-2.34h-6.66c-1.08,0-1.26.27-1.26,1.35v8.28c0,8.82,4.68,9.45,9,9.63,1.35.09,2.43.18,2.43.9,0,.63-.9.9-2.16.9-5.58,0-10.8-.18-16.02-.18s-10.98.18-16.56.18c-1.26,0-2.16-.27-2.16-.9,0-.72,1.08-.81,2.43-.9,4.23-.27,9-.63,9-9.63V14.24c0-8.82-4.41-9.36-8.73-9.54ZM290.37,28.1c7.2,0,13.05-3.42,13.05-10.89,0-8.55-5.85-10.35-13.05-10.35h-5.94c-7.29,0-7.65.09-7.65,7.38v12.69c0,.81.27,1.17,1.26,1.17h12.33Z"/>
        <path class="cls-2" d="M321.15,55.57c-13.5,0-18.03-.85-32.15-19.91-1.19-1.33-2.58-1.6-4.29-1.6h-5.92v7.63c0,7.34,3.28,7.47,7.08,7.63,1.44.1,4.35.29,4.35,2.9,0,.68-.3,2.9-4.16,2.9-2.85,0-5.63-.05-8.31-.09-2.6-.04-5.15-.09-7.71-.09s-5.24.04-7.97.09c-2.82.05-5.73.09-8.58.09-3.86,0-4.16-2.22-4.16-2.9,0-2.61,2.9-2.8,4.3-2.89,4.14-.27,7.13-.46,7.13-7.63V14.24c0-7.26-3.01-7.38-6.81-7.54h-.05c-1.39-.1-4.3-.29-4.3-2.9,0-.68.3-2.9,4.16-2.9,2.85,0,5.36.04,8.01.09,2.64.04,5.37.09,8.46.09,2.48,0,4.91-.04,7.6-.08,3.32-.05,7.09-.1,11.84-.1,9.3,0,31.07,0,31.07,16.31,0,7.23-4.12,12.18-12.25,14.76.79.83,1.56,1.78,2.37,2.81,8.21,10.94,13.14,14.63,19.58,14.63,3.5,0,3.82,2.21,3.85,2.65.09,1.33-.91,2.82-3.32,3.13-1.88.2-4.34.38-9.8.38ZM285.95,30.1c1.63.13,4.09.68,6.11,2.98l.1.13c13.6,18.36,16.86,18.36,28.99,18.36.42,0,.82,0,1.2,0-5.01-2.46-9.42-7.33-14.68-14.35-1.9-2.42-3.08-3.69-4.56-4.3l-6.22-2.54,6.59-1.27c9.03-1.74,13.23-5.52,13.23-11.9,0-9.92-11.44-11.99-23.64-12.27,4.8.34,12.34,2.2,12.34,12.27,0,7.83-5.91,12.89-15.05,12.89h-4.42ZM261.61,4.99c1.8,1.61,3.13,4.4,3.13,9.25v27.45c0,4.95-1.39,7.74-3.29,9.35.18,0,.36,0,.55,0,2.75-.04,5.46-.09,8.04-.09s5.16.04,7.78.09c.1,0,.19,0,.29,0-1.89-1.62-3.32-4.43-3.32-9.34v-8.28c0-2.06.94-3.18,2.79-3.33-1.76-.17-2.79-1.32-2.79-3.15v-12.69c0-7.16.99-8.89,5.93-9.28-.99.01-1.93.03-2.84.04-2.71.04-5.16.08-7.66.08-3.12,0-5.87-.05-8.52-.09-.03,0-.05,0-.08,0ZM278.78,26.1h11.59c3.32,0,11.05-.87,11.05-8.89,0-6.01-3.1-8.35-11.05-8.35h-5.94c-2.22,0-4.75,0-5.19.42-.46.42-.46,3.26-.46,4.96v11.86Z"/>
      </g>
      <g>
        <path class="cls-1" d="M343.47,11.54c0-2.07-.27-3.24-.72-4.14-1.17-2.07-4.77-2.79-6.75-2.79-1.26,0-1.98-.36-1.98-.9,0-.45.72-.81,1.8-.81,3.69,0,7.74.18,14.67.18s10.98-.18,14.67-.18c1.17,0,1.89.36,1.89.81,0,.54-.81.9-1.98.9-1.98,0-5.67.72-6.84,2.79-.45.9-.72,2.07-.72,4.14v32.85c0,2.16.27,3.33.72,4.23,1.17,2.07,4.86,2.79,6.84,2.79,1.17,0,1.98.36,1.98.9,0,.45-.72.81-1.89.81-3.69,0-7.74-.18-14.67-.18s-10.98.18-14.67.18c-1.08,0-1.8-.36-1.8-.81,0-.54.72-.9,1.98-.9,1.98,0,5.58-.72,6.75-2.79.45-.9.72-2.07.72-4.23V11.54Z"/>
        <path class="cls-2" d="M365.16,55.12c-1.57,0-3.2-.03-5.09-.07-2.62-.05-5.59-.11-9.58-.11s-6.96.06-9.58.11c-1.89.04-3.52.07-5.09.07-2.62,0-3.8-1.41-3.8-2.81s1.04-2.9,3.98-2.9c1.87,0,4.36-.71,4.99-1.74.23-.48.48-1.3.48-3.28V11.54c0-1.9-.25-2.71-.48-3.19-.63-1.03-3.12-1.74-4.99-1.74-2.94,0-3.98-1.56-3.98-2.9s1.17-2.81,3.8-2.81c1.57,0,3.2.03,5.09.07,2.62.05,5.59.11,9.58.11s6.96-.06,9.58-.11c1.89-.04,3.52-.07,5.09-.07,2.69,0,3.89,1.41,3.89,2.81s-1.23,2.9-3.98,2.9c-1.91,0-4.46.74-5.08,1.74-.23.48-.48,1.29-.48,3.19v32.85c0,1.98.25,2.8.48,3.28.62,1,3.17,1.74,5.08,1.74,2.75,0,3.98,1.46,3.98,2.9s-1.2,2.81-3.89,2.81ZM350.49,50.94c2.78,0,5.14.03,7.15.06-.46-.4-.85-.87-1.15-1.4l-.05-.09c-.65-1.31-.93-2.84-.93-5.12V11.54c0-2.22.28-3.73.93-5.03l.05-.09c.3-.53.7-1,1.15-1.4-2.02.04-4.37.06-7.15.06s-5.12-.03-7.13-.06c.45.4.83.87,1.14,1.4l.05.09c.65,1.31.93,2.81.93,5.03v32.85c0,2.29-.28,3.82-.93,5.12l-.05.09c-.3.53-.69,1-1.14,1.4,2.01-.03,4.36-.06,7.13-.06Z"/>
      </g>
      <g>
        <path class="cls-1" d="M421.77,16.58c.09,1.62-1.53,1.8-1.98.18-2.34-7.83-11.79-9.81-21.51-9.81-5.85,0-15.75.9-15.75,6.48,0,11.79,44.28,3.15,44.28,24.3,0,12.96-15.84,16.29-30.24,16.29s-18.81-2.79-22.23-3.42c-1.98-.36-1.35.72-2.25.72-.63,0-1.17-.36-1.44-2.88l-1.35-12.51c-.09-.72.27-1.17.9-1.17s.72.54.99,1.17c4.86,11.43,16.83,13.14,25.38,13.14s18.54-1.35,18.54-7.56c0-13.32-44.28-2.16-44.28-24.03,0-13.14,15.84-15.48,27.45-15.48,9.72,0,13.05.99,19.26,2.43,1.8.45,1.35-.72,2.25-.72.54,0,.9.18,1.17,3.33l.81,9.54Z"/>
        <path class="cls-2" d="M396.57,56.02c-11.08,0-16.48-1.66-20.06-2.76-1.03-.31-1.84-.56-2.53-.69h-.02c-.36.35-.95.75-1.87.75-2.93,0-3.28-3.27-3.43-4.67l-1.35-12.51c-.11-.91.13-1.79.7-2.43.54-.62,1.32-.95,2.19-.95,1.89,0,2.53,1.62,2.73,2.15l.1.24c3.41,8.03,11.11,11.93,23.54,11.93,6.18,0,16.54-.72,16.54-5.56,0-4.09-7.93-5.15-16.33-6.27-12.45-1.66-27.95-3.73-27.95-17.76,0-7.97,5.11-17.48,29.45-17.48,9.14,0,12.95.89,18.21,2.13l1.42.33c.37-.35.98-.75,1.88-.75,2.72,0,2.96,2.86,3.16,5.16l.81,9.6c.1,1.74-.9,3.13-2.41,3.38-1.57.26-3-.79-3.49-2.56-1.65-5.52-8.24-8.34-19.58-8.34-6.34,0-13.75,1.17-13.75,4.48s7.97,4.62,15.67,5.87c12.74,2.06,28.6,4.62,28.6,18.43,0,11.79-11.45,18.29-32.24,18.29ZM373.64,48.53c.33,0,.68.04,1.06.1.93.17,1.88.46,2.99.8,3.35,1.03,8.41,2.58,18.88,2.58s28.24-1.86,28.24-14.29c0-9.64-10.94-12.17-25.24-14.48-10.21-1.65-19.04-3.07-19.04-9.82,0-5.47,6.3-8.48,17.75-8.48,10.32,0,17.38,2.27,21.07,6.77l-.38-4.51c-.02-.28-.05-.52-.07-.74-.5.09-1.1.08-1.84-.1l-1.47-.34c-5.19-1.22-8.62-2.03-17.3-2.03-11.61,0-25.45,2.34-25.45,13.48,0,9.78,10.15,11.89,24.48,13.8,10.18,1.36,19.8,2.64,19.8,10.23,0,6.34-6.91,9.56-20.54,9.56-11.61,0-19.89-3.32-24.69-9.88l.76,7.03c.02.15.03.29.05.42.29-.08.6-.12.95-.12ZM371.29,35.68h0s0,0,0,0ZM419.77,16.71h0s0,0,0,0Z"/>
      </g>
    </g>
    <g>
      <g>
        <path class="cls-1" d="M54.33,16.58c.09,1.62-1.53,1.8-1.98.18-2.34-7.83-11.79-9.81-21.51-9.81-5.85,0-15.75.9-15.75,6.48,0,11.79,44.28,3.15,44.28,24.3,0,12.96-15.84,16.29-30.24,16.29s-18.81-2.79-22.23-3.42c-1.98-.36-1.35.72-2.25.72-.63,0-1.17-.36-1.44-2.88l-1.35-12.51c-.09-.72.27-1.17.9-1.17s.72.54.99,1.17c4.86,11.43,16.83,13.14,25.38,13.14s18.54-1.35,18.54-7.56c0-13.32-44.28-2.16-44.28-24.03C3.39,4.34,19.23,2,30.84,2c9.72,0,13.05.99,19.26,2.43,1.8.45,1.35-.72,2.25-.72.54,0,.9.18,1.17,3.33l.81,9.54Z"/>
        <path d="M29.13,54.52c-10.85,0-16.13-1.62-19.62-2.69-1.07-.33-1.92-.59-2.7-.73-.9-.17-1.02,0-1.16.18-.15.2-.4.54-1,.54-1.31,0-1.72-1.33-1.94-3.33l-1.35-12.51c-.08-.65.14-1.05.33-1.28.25-.29.63-.45,1.06-.45.87,0,1.14.69,1.34,1.19l.11.28c3.67,8.64,11.82,12.84,24.92,12.84,8.23,0,18.04-1.22,18.04-7.06,0-5.4-8.17-6.49-17.63-7.75-12.49-1.67-26.65-3.56-26.65-16.28S18.09,1.5,30.84,1.5c8.97,0,12.51.83,17.87,2.09l1.5.35c.8.2.91.05,1.1-.18.18-.22.45-.56,1.04-.56,1.07,0,1.41.78,1.67,3.79l.81,9.56c.06,1.11-.54,1.72-1.16,1.82-.64.09-1.48-.31-1.8-1.48-1.87-6.26-8.95-9.44-21.03-9.44-4.58,0-15.25.58-15.25,5.98,0,4.61,7.85,5.88,16.94,7.35,12.18,1.97,27.34,4.42,27.34,16.95,0,14.61-19.26,16.79-30.74,16.79ZM6.2,50.03c.22,0,.48.02.78.08.84.16,1.76.44,2.82.76,3.43,1.06,8.62,2.65,19.32,2.65s29.74-2.05,29.74-15.79c0-11.68-14.08-13.96-26.5-15.96-9.54-1.54-17.78-2.87-17.78-8.34,0-6.07,10.18-6.98,16.25-6.98,12.57,0,19.97,3.42,21.99,10.17.16.56.47.81.68.77.17-.03.35-.28.32-.77l-.81-9.53c-.21-2.47-.47-2.82-.55-2.86,0,0-.03,0-.12,0-.1,0-.12,0-.26.19-.35.44-.81.84-2.11.52l-1.49-.35c-5.3-1.24-8.79-2.07-17.64-2.07C18.54,2.5,3.89,5.1,3.89,17.48s13.7,13.67,25.78,15.29c9.93,1.32,18.5,2.47,18.5,8.74,0,5.35-6.41,8.06-19.04,8.06-13.35,0-22.05-4.52-25.84-13.44-.05-.11-.09-.21-.13-.31-.22-.56-.26-.56-.4-.56s-.25.04-.31.11c-.08.1-.12.28-.09.5l1.35,12.52c.26,2.43.74,2.43.94,2.43q.1,0,.19-.14c.25-.34.56-.66,1.36-.66Z"/>
      </g>
      <g>
        <path class="cls-1" d="M111.93,38.54h-32.49l-2.7,4.05c-.81,1.17-2.7,4.05-2.7,6.03,0,1.53.99,2.79,4.23,2.79,1.17,0,1.89.36,1.89.81s-.63.9-1.8.9c-3.78,0-7.47-.18-11.07-.18-3.78,0-7.65.18-11.43.18-1.17,0-1.8-.45-1.8-.9,0-.36.63-.81,1.8-.81,5.49-.09,8.19-2.25,13.95-10.62l22.41-32.76c-1.26-2.16-4.77-3.42-7.02-3.42-1.17,0-1.89-.45-1.89-.9s.72-.81,1.8-.81h11.7c5.58,0,8.1,1.44,10.44,5.04l21.51,32.4c2.79,4.23,7.83,11.07,12.42,11.07,1.17,0,1.8.45,1.8.99,0,.45-.63.72-1.8.72-4.59,0-9.18-.18-13.77-.18s-9.36.18-14.13.18c-1.17,0-1.71-.27-1.71-.81,0-.36.54-.9,1.71-.9,1.89,0,4.32-.45,4.32-2.7,0-1.08-.54-2.43-2.97-6.12l-2.7-4.05ZM82.77,33.5h25.83l-12.87-19.62-12.96,19.62Z"/>
        <path d="M141.18,53.62c-2.3,0-4.64-.05-6.89-.09-4.54-.09-9.31-.09-13.86,0-2.33.04-4.74.09-7.14.09-1.47,0-2.21-.44-2.21-1.31,0-.68.77-1.4,2.21-1.4,1.74,0,3.82-.38,3.82-2.2,0-.92-.47-2.18-2.89-5.84l-2.55-3.83h-31.95l-2.55,3.83c-1.69,2.44-2.62,4.48-2.62,5.75,0,.57,0,2.29,3.73,2.29,1.45,0,2.39.51,2.39,1.31,0,.67-.72,1.4-2.3,1.4-1.92,0-3.83-.05-5.68-.09-1.82-.04-3.61-.09-5.39-.09-1.88,0-3.83.05-5.7.09-1.88.04-3.83.09-5.73.09-1.58,0-2.3-.73-2.3-1.4s.79-1.31,2.3-1.31c5.24-.09,7.78-2.03,13.54-10.4l22.22-32.48c-1.23-1.73-4.28-2.91-6.42-2.91-1.38,0-2.39-.59-2.39-1.4s.92-1.31,2.3-1.31h11.7c5.49,0,8.33,1.38,10.86,5.27l21.51,32.39c4.75,7.2,8.78,10.85,12,10.85,1.59,0,2.3.75,2.3,1.49,0,.46-.3,1.22-2.3,1.22ZM127.41,52.44c2.3,0,4.64.05,6.89.09,2.25.04,4.58.09,6.88.09.93,0,1.26-.18,1.31-.25,0-.17-.42-.46-1.31-.46-3.58,0-7.89-3.8-12.84-11.29l-21.51-32.4c-2.34-3.6-4.87-4.82-10.02-4.82h-11.7c-.87,0-1.26.25-1.31.34.04.05.45.37,1.4.37,2.55,0,6.13,1.4,7.45,3.67l.16.27-22.59,33.02c-5.93,8.62-8.75,10.75-14.35,10.84-.86,0-1.27.27-1.32.37.03.03.37.34,1.31.34,1.88,0,3.83-.05,5.7-.09,1.88-.04,3.83-.09,5.73-.09,1.78,0,3.59.04,5.41.09,1.84.04,3.75.09,5.66.09.94,0,1.29-.31,1.3-.4-.04-.06-.46-.31-1.39-.31-3.91,0-4.73-1.79-4.73-3.29,0-1.89,1.52-4.48,2.79-6.31l2.84-4.27h33.02l2.85,4.27c2.58,3.92,3.05,5.23,3.05,6.4,0,2.06-1.71,3.2-4.82,3.2-.9,0-1.19.35-1.21.42,0,.17.48.29,1.21.29,2.39,0,4.8-.05,7.12-.09,2.3-.04,4.67-.09,7.01-.09ZM109.52,34h-27.68l13.89-21.03,13.79,21.03ZM83.7,33h23.97l-11.95-18.21-12.03,18.21Z"/>
      </g>
      <g>
        <path class="cls-1" d="M204.44,45.56c0,7.74-21.51,8.46-27.45,8.46-22.68,0-43.02-7.47-43.02-25.92S155.58,2,177.27,2c7.47,0,15.12,1.35,22.41,3.15.36.09.63.18,1.26.18s.72-.45,1.44-.45c1.17,0,1.17.99,1.17,7.65v7.11c0,1.26-1.26,1.62-1.71.09-2.52-8.73-8.64-13.86-24.57-13.86s-26.19,8.55-26.19,22.23,10.8,21.87,26.19,21.87c2.97,0,13.14-.36,13.14-4.68v-6.57c0-1.62-.18-3.24-.72-4.32-1.17-2.34-4.95-2.52-6.75-2.7-1.8-.18-1.98-.54-1.98-.9,0-.63.72-.81,1.8-.81,3.69,0,7.74.18,14.67.18s10.98-.18,14.67-.18c1.26,0,1.89.27,1.89.81s-.54.72-1.98.9c-3.33.36-5.76.63-6.84,2.7-.45.81-.72,2.43-.72,4.32v6.84Z"/>
        <path d="M177,54.52c-27.25,0-43.52-9.88-43.52-26.42,0-19.63,23.59-26.6,43.79-26.6,6.53,0,13.9,1.04,22.53,3.17l.12.03c.29.08.52.13,1.02.13.17,0,.25-.05.41-.14.22-.13.52-.31,1.03-.31,1.67,0,1.67,1.09,1.67,8.15v7.11c0,.84-.46,1.49-1.12,1.59-.52.08-1.24-.24-1.57-1.36-2.77-9.59-9.75-13.5-24.09-13.5-15.37,0-25.69,8.73-25.69,21.73s10.08,21.37,25.69,21.37c5.83,0,12.64-1.09,12.64-4.18v-6.57c0-1.81-.23-3.22-.67-4.1-.96-1.93-4.08-2.21-5.94-2.39l-.42-.04c-1.46-.15-2.43-.44-2.43-1.4,0-1.31,1.73-1.31,2.3-1.31,1.56,0,3.18.03,5.06.07,2.63.05,5.61.11,9.61.11s6.98-.06,9.61-.11c1.88-.04,3.5-.07,5.06-.07s2.39.44,2.39,1.31c0,1.09-1.23,1.25-2.42,1.4-3.2.34-5.5.59-6.46,2.44-.41.74-.66,2.3-.66,4.09v6.84c0,8.53-23.28,8.96-27.95,8.96ZM177.27,2.5c-19.74,0-42.79,6.7-42.79,25.6,0,15.92,15.9,25.42,42.52,25.42,2.07,0,9.33-.09,15.86-1.32,5.06-.95,11.09-2.87,11.09-6.64v-6.84c0-2,.29-3.67.78-4.56,1.2-2.3,3.86-2.59,7.22-2.95,1.16-.15,1.47-.28,1.53-.36,0-.16-.37-.35-1.39-.35-1.55,0-3.17.03-5.04.07-2.63.05-5.62.11-9.63.11s-7-.06-9.63-.11c-1.87-.04-3.49-.07-5.04-.07-.81,0-1.3.12-1.3.31,0,.04.18.27,1.53.4l.41.04c2.07.19,5.53.51,6.74,2.94.51,1.02.77,2.55.77,4.54v6.57c0,4.81-10.44,5.18-13.64,5.18-16.21,0-26.69-8.78-26.69-22.37s10.73-22.73,26.69-22.73c14.68,0,22.17,4.25,25.05,14.22.14.47.35.68.47.65.11-.01.26-.21.26-.6v-7.11c0-5.9-.02-7.15-.67-7.15-.24,0-.34.06-.52.17-.2.12-.48.28-.92.28-.62,0-.95-.08-1.26-.17l-.12-.03c-8.54-2.11-15.84-3.14-22.29-3.14Z"/>
      </g>
      <g>
        <path class="cls-1" d="M222.18,11.54c0-2.07-.27-3.24-.72-4.14-1.17-2.07-4.77-2.79-6.75-2.79-1.26,0-1.98-.36-1.98-.9,0-.45.72-.81,1.8-.81,3.69,0,7.74.18,14.67.18s10.98-.18,14.67-.18c1.17,0,1.89.36,1.89.81,0,.54-.81.9-1.98.9-1.98,0-5.67.72-6.84,2.79-.45.9-.72,2.07-.72,4.14v32.85c0,2.16.27,3.33.72,4.23,1.17,2.07,4.86,2.79,6.84,2.79,1.17,0,1.98.36,1.98.9,0,.45-.72.81-1.89.81-3.69,0-7.74-.18-14.67-.18s-10.98.18-14.67.18c-1.08,0-1.8-.36-1.8-.81,0-.54.72-.9,1.98-.9,1.98,0,5.58-.72,6.75-2.79.45-.9.72-2.07.72-4.23V11.54Z"/>
        <path d="M243.87,53.62c-1.56,0-3.18-.03-5.06-.07-2.63-.05-5.61-.11-9.61-.11s-6.98.06-9.61.11c-1.88.04-3.5.07-5.06.07-1.38,0-2.3-.53-2.3-1.31,0-.33.18-1.4,2.48-1.4,1.89,0,5.27-.69,6.31-2.54.46-.91.66-2.11.66-3.98V11.54c0-1.81-.2-2.98-.67-3.92-1.03-1.83-4.42-2.51-6.3-2.51-2.3,0-2.48-1.07-2.48-1.4,0-.78.92-1.31,2.3-1.31,1.56,0,3.18.03,5.06.07,2.63.05,5.61.11,9.61.11s6.98-.06,9.61-.11c1.88-.04,3.5-.07,5.06-.07,1.45,0,2.39.51,2.39,1.31,0,.85-.97,1.4-2.48,1.4-2.06,0-5.42.79-6.4,2.54-.46.91-.66,2.08-.66,3.89v32.85c0,1.87.2,3.07.67,4.01.98,1.73,4.33,2.51,6.39,2.51,1.51,0,2.48.55,2.48,1.4,0,.8-.94,1.31-2.39,1.31ZM229.2,52.44c4.01,0,7,.06,9.63.11,1.87.04,3.49.07,5.04.07.93,0,1.35-.25,1.4-.34,0-.04-.39-.37-1.49-.37-2.23,0-6.01-.81-7.28-3.04-.55-1.11-.78-2.44-.78-4.48V11.54c0-1.97.23-3.28.77-4.36,1.27-2.26,5.05-3.07,7.29-3.07,1.09,0,1.48-.33,1.48-.4-.04-.06-.46-.31-1.39-.31-1.55,0-3.17.03-5.04.07-2.63.05-5.62.11-9.63.11s-7-.06-9.63-.11c-1.87-.04-3.49-.07-5.04-.07-.87,0-1.26.25-1.3.34,0,.08.37.37,1.49.37,2.2,0,5.92.81,7.18,3.04.55,1.11.79,2.41.79,4.39v32.85c0,2.04-.23,3.37-.77,4.45-1.27,2.26-5,3.07-7.2,3.07-1.12,0-1.48.3-1.48.4.04.06.43.31,1.3.31,1.55,0,3.17-.03,5.04-.07,2.63-.05,5.62-.11,9.63-.11Z"/>
      </g>
      <g>
        <path class="cls-1" d="M253.86,4.7c-1.35-.09-2.43-.18-2.43-.9,0-.63.9-.9,2.16-.9,5.76,0,10.35.18,16.47.18,5.58,0,10.89-.18,19.44-.18,9.72,0,29.07.18,29.07,14.31,0,8.73-6.93,12.33-14.85,13.86,1.98.81,3.42,2.43,5.4,4.95,7.83,10.44,13.32,15.39,21.15,15.39,2.52,0,2.34,1.53.27,1.8-1.71.18-4.05.36-9.54.36-12.51,0-16.47-.09-30.6-19.17-1.89-2.16-4.23-2.34-5.85-2.34h-6.66c-1.08,0-1.26.27-1.26,1.35v8.28c0,8.82,4.68,9.45,9,9.63,1.35.09,2.43.18,2.43.9,0,.63-.9.9-2.16.9-5.58,0-10.8-.18-16.02-.18s-10.98.18-16.56.18c-1.26,0-2.16-.27-2.16-.9,0-.72,1.08-.81,2.43-.9,4.23-.27,9-.63,9-9.63V14.24c0-8.82-4.41-9.36-8.73-9.54ZM290.22,28.1c7.2,0,13.05-3.42,13.05-10.89,0-8.55-5.85-10.35-13.05-10.35h-5.94c-7.29,0-7.65.09-7.65,7.38v12.69c0,.81.27,1.17,1.26,1.17h12.33Z"/>
        <path d="M320.99,54.07c-12.46,0-16.65,0-31-19.37-1.65-1.88-3.68-2.14-5.45-2.14h-6.66q-.76,0-.76.85v8.28c0,8.12,3.86,8.94,8.52,9.13,1.44.1,2.91.19,2.91,1.4,0,.64-.46,1.4-2.66,1.4-2.84,0-5.61-.05-8.29-.09-2.61-.04-5.17-.09-7.73-.09s-5.26.04-8,.09c-2.81.04-5.72.09-8.56.09-2.2,0-2.66-.76-2.66-1.4,0-1.21,1.47-1.3,2.9-1.4,4.2-.27,8.53-.55,8.53-9.13V14.24c0-8.7-4.38-8.88-8.25-9.04h-.01c-1.42-.1-2.9-.19-2.9-1.4,0-.64.46-1.4,2.66-1.4,2.84,0,5.34.04,7.99.09,2.64.04,5.38.09,8.48.09,2.49,0,4.93-.04,7.62-.08,3.32-.05,7.08-.1,11.82-.1,8.85,0,29.57,0,29.57,14.81,0,7.22-4.67,11.94-13.89,14.06,1.56,1.01,2.87,2.57,4.33,4.44,7.39,9.86,12.89,15.2,20.75,15.2,2.11,0,2.34.96,2.35,1.25.04.63-.57,1.36-2.02,1.55-1.81.19-4.21.36-9.6.36ZM277.89,31.56h6.66c1.88,0,4.28.29,6.23,2.51,14.07,19,17.82,19,30.22,19,5.35,0,7.72-.17,9.49-.36.8-.1,1.12-.41,1.14-.5-.03-.04-.36-.31-1.36-.31-8.29,0-13.97-5.48-21.55-15.59-2.09-2.66-3.4-4.06-5.19-4.79l-1.55-.64,1.65-.32c9.72-1.88,14.44-6.25,14.44-13.37,0-13.81-19.3-13.81-28.57-13.81-4.73,0-8.48.06-11.8.1-2.7.04-5.14.08-7.64.08-3.11,0-5.85-.05-8.5-.09-2.64-.04-5.14-.09-7.97-.09-1.24,0-1.66.27-1.66.4,0,.27,1.32.36,1.96.4,4.85.2,9.2,1.12,9.2,10.04v27.45c0,9.52-5.25,9.86-9.47,10.13-.64.04-1.96.13-1.96.4,0,.12.42.4,1.66.4,2.83,0,5.74-.05,8.54-.09,2.75-.04,5.45-.09,8.01-.09s5.14.04,7.75.09c2.67.04,5.44.09,8.27.09,1.24,0,1.66-.28,1.66-.4,0-.27-1.33-.36-1.96-.4-4.78-.2-9.47-1.15-9.47-10.13v-8.28c0-1.2.28-1.85,1.76-1.85ZM290.22,28.6h-12.33c-1.2,0-1.76-.53-1.76-1.67v-12.69c0-7.66.69-7.88,8.15-7.88h5.94c6.31,0,13.55,1.23,13.55,10.85,0,7.03-5.19,11.39-13.55,11.39ZM284.28,7.36q-7.15,0-7.15,6.88v12.69c0,.52.03.67.76.67h12.33c7.86,0,12.55-3.88,12.55-10.39,0-6.9-3.75-9.85-12.55-9.85h-5.94Z"/>
      </g>
      <g>
        <path class="cls-1" d="M343.32,11.54c0-2.07-.27-3.24-.72-4.14-1.17-2.07-4.77-2.79-6.75-2.79-1.26,0-1.98-.36-1.98-.9,0-.45.72-.81,1.8-.81,3.69,0,7.74.18,14.67.18s10.98-.18,14.67-.18c1.17,0,1.89.36,1.89.81,0,.54-.81.9-1.98.9-1.98,0-5.67.72-6.84,2.79-.45.9-.72,2.07-.72,4.14v32.85c0,2.16.27,3.33.72,4.23,1.17,2.07,4.86,2.79,6.84,2.79,1.17,0,1.98.36,1.98.9,0,.45-.72.81-1.89.81-3.69,0-7.74-.18-14.67-.18s-10.98.18-14.67.18c-1.08,0-1.8-.36-1.8-.81,0-.54.72-.9,1.98-.9,1.98,0,5.58-.72,6.75-2.79.45-.9.72-2.07.72-4.23V11.54Z"/>
        <path d="M365,53.62c-1.56,0-3.18-.03-5.06-.07-2.63-.05-5.61-.11-9.61-.11s-6.98.06-9.61.11c-1.88.04-3.5.07-5.06.07-1.38,0-2.3-.53-2.3-1.31,0-.33.18-1.4,2.48-1.4,1.89,0,5.27-.69,6.31-2.54.46-.91.66-2.11.66-3.98V11.54c0-1.81-.2-2.98-.67-3.92-1.03-1.83-4.42-2.51-6.3-2.51-2.3,0-2.48-1.07-2.48-1.4,0-.78.92-1.31,2.3-1.31,1.56,0,3.18.03,5.06.07,2.63.05,5.61.11,9.61.11s6.98-.06,9.61-.11c1.88-.04,3.5-.07,5.06-.07,1.45,0,2.39.51,2.39,1.31,0,.85-.97,1.4-2.48,1.4-2.06,0-5.42.79-6.4,2.54-.46.91-.66,2.08-.66,3.89v32.85c0,1.87.2,3.07.67,4.01.98,1.73,4.33,2.51,6.39,2.51,1.51,0,2.48.55,2.48,1.4,0,.8-.94,1.31-2.39,1.31ZM350.34,52.44c4.01,0,7,.06,9.63.11,1.87.04,3.49.07,5.04.07.93,0,1.35-.25,1.4-.34,0-.04-.39-.37-1.49-.37-2.23,0-6.01-.81-7.28-3.04-.55-1.11-.78-2.44-.78-4.48V11.54c0-1.97.23-3.28.77-4.36,1.27-2.26,5.05-3.07,7.29-3.07,1.09,0,1.48-.33,1.48-.4-.04-.06-.46-.31-1.39-.31-1.55,0-3.17.03-5.04.07-2.63.05-5.62.11-9.63.11s-7-.06-9.63-.11c-1.87-.04-3.49-.07-5.04-.07-.87,0-1.26.25-1.3.34,0,.08.37.37,1.49.37,2.2,0,5.92.81,7.19,3.04.55,1.11.78,2.41.78,4.39v32.85c0,2.04-.23,3.37-.77,4.45-1.28,2.26-5,3.07-7.2,3.07-1.12,0-1.48.3-1.48.4.04.06.43.31,1.3.31,1.55,0,3.17-.03,5.04-.07,2.63-.05,5.62-.11,9.63-.11Z"/>
      </g>
      <g>
        <path class="cls-1" d="M421.61,16.58c.09,1.62-1.53,1.8-1.98.18-2.34-7.83-11.79-9.81-21.51-9.81-5.85,0-15.75.9-15.75,6.48,0,11.79,44.28,3.15,44.28,24.3,0,12.96-15.84,16.29-30.24,16.29s-18.81-2.79-22.23-3.42c-1.98-.36-1.35.72-2.25.72-.63,0-1.17-.36-1.44-2.88l-1.35-12.51c-.09-.72.27-1.17.9-1.17s.72.54.99,1.17c4.86,11.43,16.83,13.14,25.38,13.14s18.54-1.35,18.54-7.56c0-13.32-44.28-2.16-44.28-24.03,0-13.14,15.84-15.48,27.45-15.48,9.72,0,13.05.99,19.26,2.43,1.8.45,1.35-.72,2.25-.72.54,0,.9.18,1.17,3.33l.81,9.54Z"/>
        <path d="M396.41,54.52c-10.85,0-16.13-1.62-19.62-2.69-1.07-.33-1.92-.59-2.7-.73-.9-.17-1.02,0-1.16.18-.15.2-.4.54-1,.54-1.31,0-1.72-1.33-1.94-3.33l-1.35-12.51c-.08-.65.14-1.05.33-1.28.25-.29.63-.45,1.06-.45.87,0,1.14.69,1.34,1.19l.11.28c3.67,8.64,11.82,12.84,24.92,12.84,8.23,0,18.04-1.22,18.04-7.06,0-5.4-8.17-6.49-17.63-7.75-12.49-1.67-26.65-3.56-26.65-16.28s15.2-15.98,27.95-15.98c8.97,0,12.51.83,17.87,2.09l1.5.35c.8.2.91.05,1.09-.17.18-.22.45-.56,1.04-.56,1.07,0,1.41.78,1.67,3.79l.81,9.56c.06,1.11-.54,1.72-1.16,1.82-.65.1-1.48-.31-1.8-1.48-1.87-6.26-8.95-9.44-21.03-9.44-4.58,0-15.25.58-15.25,5.98,0,4.61,7.85,5.88,16.94,7.35,12.18,1.97,27.34,4.42,27.34,16.95,0,14.61-19.26,16.79-30.74,16.79ZM373.49,50.03c.22,0,.48.02.79.08.84.16,1.76.44,2.82.76,3.43,1.06,8.62,2.65,19.32,2.65s29.74-2.05,29.74-15.79c0-11.68-14.08-13.96-26.5-15.96-9.54-1.54-17.78-2.87-17.78-8.34,0-6.07,10.18-6.98,16.25-6.98,12.58,0,19.97,3.42,21.99,10.17.15.56.45.82.68.77.17-.03.35-.28.32-.77l-.81-9.53c-.21-2.47-.47-2.82-.55-2.86,0,0-.03,0-.12,0-.1,0-.12,0-.26.19-.36.44-.81.84-2.11.52l-1.5-.35c-5.3-1.24-8.79-2.07-17.64-2.07-12.29,0-26.95,2.6-26.95,14.98s13.7,13.67,25.78,15.29c9.93,1.32,18.5,2.47,18.5,8.74,0,5.35-6.41,8.06-19.04,8.06-13.35,0-22.05-4.52-25.84-13.44-.04-.11-.09-.21-.12-.31-.22-.56-.26-.56-.4-.56s-.25.04-.31.11c-.08.1-.12.28-.09.5l1.35,12.52c.26,2.43.74,2.43.94,2.43q.1,0,.19-.14c.25-.34.56-.66,1.36-.66Z"/>
      </g>
    </g>
  </g>
</svg>