<?xml version="1.0" encoding="UTF-8"?><svg id="a" xmlns="http://www.w3.org/2000/svg" viewBox="5.6 18.45 398.35 56.16"><defs><style>.b{fill:#ccc;stroke:#000;stroke-miterlimit:10;}.c{fill:none;stroke:#2e3192;stroke-width:3px;}</style></defs><g><path class="c" d="M59.82,35.07c.09,1.62-1.53,1.8-1.98,.18-2.34-7.83-11.79-9.81-21.51-9.81-5.85,0-15.75,.9-15.75,6.48,0,11.79,44.28,3.15,44.28,24.3,0,12.96-15.84,16.29-30.24,16.29s-18.81-2.79-22.23-3.42c-1.98-.36-1.35,.72-2.25,.72-.63,0-1.17-.36-1.44-2.88l-1.35-12.51c-.09-.72,.27-1.17,.9-1.17s.72,.54,.99,1.17c4.86,11.43,16.83,13.14,25.38,13.14s18.54-1.35,18.54-7.56c0-13.32-44.28-2.16-44.28-24.03,0-13.14,15.84-15.48,27.45-15.48,9.72,0,13.05,.99,19.26,2.43,1.8,.45,1.35-.72,2.25-.72,.54,0,.9,.18,1.17,3.33l.81,9.54Z"/><path class="c" d="M111.03,60.81h-25.74l-1.71,2.61c-.72,.99-1.08,2.07-1.08,3.06,0,1.89,1.44,3.42,4.59,3.42,1.17,0,1.98,.27,1.98,.81,0,.63-.72,.9-1.89,.9-3.69,0-7.29-.18-10.89-.18s-7.47,.18-11.16,.18c-1.26,0-1.89-.27-1.89-.9,0-.54,.63-.81,1.89-.81,4.32,0,6.75-1.62,12.6-9.99l16.92-24.48c-1.53-2.16-3.96-2.61-6.12-2.61-1.98,0-2.52-1.71-.09-1.71h10.35c5.94,0,8.01,.63,10.26,3.96l16.02,24.03c2.7,4.05,7.11,10.8,11.88,10.8,1.44,0,1.89,.27,1.89,.9,0,.45-.36,.81-1.89,.81-4.59,0-9.18-.18-13.77-.18s-9.27,.18-13.95,.18c-1.17,0-1.8-.18-1.8-.81s.63-.9,1.89-.9c1.62,0,5.04-.36,5.04-2.52,0-.9-.45-2.16-1.53-3.87l-1.8-2.7Zm-22.77-4.5h19.8l-9.9-15.03-9.9,15.03Z"/><path class="c" d="M193.29,66.66c0,4.41-15.57,5.85-23.58,5.85-17.82,0-34.92-6.12-34.92-21.15s17.82-21.15,34.92-21.15c7.65,0,13.59,1.35,17.55,2.43,1.98,.54,2.34,.63,3.06,.63,1.44,0,1.17-1.89,2.07-1.89,.81,0,.9,.63,.9,2.25v12.6c0,1.53-1.26,1.44-1.71,.09-2.07-6.21-9.9-11.61-21.87-11.61s-20.07,5.76-20.07,16.65,7.56,16.65,19.98,16.65c3.15,0,10.35-.27,10.35-2.25v-4.95c0-2.07-.27-3.33-.81-4.32-1.26-2.25-4.77-2.52-6.66-2.61-1.17-.09-1.98-.27-1.98-.9,0-.54,.81-.81,1.8-.81,4.77,0,9.54,.18,14.31,.18s9.45-.18,14.31-.18c.99,0,1.8,.27,1.8,.9,0,.54-.72,.72-1.89,.81-2.97,.27-5.49,.54-6.75,2.61-.54,.99-.81,2.16-.81,4.32v5.85Z"/><path class="c" d="M213.72,39.84c0-2.16-.27-3.33-.81-4.23-1.17-2.07-4.77-2.79-6.75-2.79-1.17,0-1.98-.36-1.98-.9,0-.45,.72-.81,1.89-.81,4.77,0,9.54,.18,14.22,.18s9.45-.18,14.31-.18c1.17,0,1.89,.36,1.89,.81,0,.54-.72,.9-1.98,.9-1.98,0-5.58,.72-6.75,2.79-.45,.9-.72,2.07-.72,4.23v23.04c0,2.16,.27,3.33,.72,4.23,1.17,2.07,4.77,2.79,6.75,2.79,1.26,0,1.98,.36,1.98,.9,0,.45-.72,.81-1.89,.81-4.77,0-9.45-.18-14.22-.18s-9.54,.18-14.31,.18c-1.17,0-1.89-.36-1.89-.81,0-.54,.81-.9,1.98-.9,1.98,0,5.58-.72,6.75-2.79,.54-.9,.81-2.07,.81-4.23v-23.04Z"/><path class="c" d="M251.7,39.84c0-6.48-4.32-6.84-7.56-7.02-1.17-.09-1.89-.27-1.89-.81s.54-.9,1.8-.9c3.87,0,10.08,.18,14.13,.18,4.95,0,10.17-.18,11.79-.18h5.31c10.71,0,24.3,1.17,24.3,11.52,0,7.29-6.84,10.62-14.04,11.79,1.62,.45,3.24,1.71,5.4,4.32,2.61,2.61,8.91,11.25,14.67,11.25h2.52c1.98,0,1.89,1.44,.09,1.62-1.17,.09-6.57,.45-7.56,.45-15.12,0-15.66-.63-23.4-11.43-4.23-5.85-5.67-6.03-9.81-6.03h-1.53c-.81,0-1.26,.27-1.26,1.17v7.02c0,2.25,.18,3.42,.72,4.32,1.53,2.7,5.13,2.61,6.75,2.79,1.26,.09,1.89,.27,1.89,.81s-.54,.9-1.8,.9c-4.77,0-9.36-.18-14.04-.18s-9.45,.18-14.13,.18c-1.08,0-1.89-.27-1.89-.9,0-.54,.81-.72,1.98-.81,2.97-.27,5.31-.63,6.66-2.79,.54-.9,.9-2.07,.9-4.32v-22.95Zm22.5,11.16c7.29,0,11.61-1.89,11.61-8.01s-4.32-8.46-11.52-8.46h-3.42c-5.76,0-6.21,.45-6.21,4.41v10.89c0,.9,.27,1.17,1.26,1.17h8.28Z"/><path class="c" d="M323.7,39.84c0-2.16-.27-3.33-.81-4.23-1.17-2.07-4.77-2.79-6.75-2.79-1.17,0-1.98-.36-1.98-.9,0-.45,.72-.81,1.89-.81,4.77,0,9.54,.18,14.22,.18s9.45-.18,14.31-.18c1.17,0,1.89,.36,1.89,.81,0,.54-.72,.9-1.98,.9-1.98,0-5.58,.72-6.75,2.79-.45,.9-.72,2.07-.72,4.23v23.04c0,2.16,.27,3.33,.72,4.23,1.17,2.07,4.77,2.79,6.75,2.79,1.26,0,1.98,.36,1.98,.9,0,.45-.72,.81-1.89,.81-4.77,0-9.45-.18-14.22-.18s-9.54,.18-14.31,.18c-1.17,0-1.89-.36-1.89-.81,0-.54,.81-.9,1.98-.9,1.98,0,5.58-.72,6.75-2.79,.54-.9,.81-2.07,.81-4.23v-23.04Z"/><path class="c" d="M398.21,43.98c.18,.99,0,1.53-.36,1.62-.45,.09-.99-.09-1.26-1.08-2.25-8.37-11.88-10.26-19.53-10.26-6.93,0-15.57,1.08-15.57,5.85,0,10.17,40.14-1.89,40.14,18.36,0,11.16-11.88,14.04-25.56,14.04-8.55,0-13.41-1.08-20.16-2.7-1.62-.36-1.35,.18-1.8,.27-.45,.09-.99-.36-1.35-2.16l-2.34-11.79c-.18-.99,0-1.71,.45-1.8,.63-.09,.9,.27,1.26,1.44,2.52,10.26,15.93,12.78,23.94,12.78,6.39,0,15.66-.27,15.66-6.48,0-11.07-40.14,2.43-40.14-17.91,0-11.07,12.15-13.95,25.56-13.95,7.47,0,11.43,.72,16.38,2.43,1.62,.54,1.35-.27,1.89-.27,.36,0,.72,.45,1.08,2.7l1.71,8.91Z"/></g><g><path class="b" d="M59.82,35.07c.09,1.62-1.53,1.8-1.98,.18-2.34-7.83-11.79-9.81-21.51-9.81-5.85,0-15.75,.9-15.75,6.48,0,11.79,44.28,3.15,44.28,24.3,0,12.96-15.84,16.29-30.24,16.29s-18.81-2.79-22.23-3.42c-1.98-.36-1.35,.72-2.25,.72-.63,0-1.17-.36-1.44-2.88l-1.35-12.51c-.09-.72,.27-1.17,.9-1.17s.72,.54,.99,1.17c4.86,11.43,16.83,13.14,25.38,13.14s18.54-1.35,18.54-7.56c0-13.32-44.28-2.16-44.28-24.03,0-13.14,15.84-15.48,27.45-15.48,9.72,0,13.05,.99,19.26,2.43,1.8,.45,1.35-.72,2.25-.72,.54,0,.9,.18,1.17,3.33l.81,9.54Z"/><path class="b" d="M111.03,60.81h-25.74l-1.71,2.61c-.72,.99-1.08,2.07-1.08,3.06,0,1.89,1.44,3.42,4.59,3.42,1.17,0,1.98,.27,1.98,.81,0,.63-.72,.9-1.89,.9-3.69,0-7.29-.18-10.89-.18s-7.47,.18-11.16,.18c-1.26,0-1.89-.27-1.89-.9,0-.54,.63-.81,1.89-.81,4.32,0,6.75-1.62,12.6-9.99l16.92-24.48c-1.53-2.16-3.96-2.61-6.12-2.61-1.98,0-2.52-1.71-.09-1.71h10.35c5.94,0,8.01,.63,10.26,3.96l16.02,24.03c2.7,4.05,7.11,10.8,11.88,10.8,1.44,0,1.89,.27,1.89,.9,0,.45-.36,.81-1.89,.81-4.59,0-9.18-.18-13.77-.18s-9.27,.18-13.95,.18c-1.17,0-1.8-.18-1.8-.81s.63-.9,1.89-.9c1.62,0,5.04-.36,5.04-2.52,0-.9-.45-2.16-1.53-3.87l-1.8-2.7Zm-22.77-4.5h19.8l-9.9-15.03-9.9,15.03Z"/><path class="b" d="M193.29,66.66c0,4.41-15.57,5.85-23.58,5.85-17.82,0-34.92-6.12-34.92-21.15s17.82-21.15,34.92-21.15c7.65,0,13.59,1.35,17.55,2.43,1.98,.54,2.34,.63,3.06,.63,1.44,0,1.17-1.89,2.07-1.89,.81,0,.9,.63,.9,2.25v12.6c0,1.53-1.26,1.44-1.71,.09-2.07-6.21-9.9-11.61-21.87-11.61s-20.07,5.76-20.07,16.65,7.56,16.65,19.98,16.65c3.15,0,10.35-.27,10.35-2.25v-4.95c0-2.07-.27-3.33-.81-4.32-1.26-2.25-4.77-2.52-6.66-2.61-1.17-.09-1.98-.27-1.98-.9,0-.54,.81-.81,1.8-.81,4.77,0,9.54,.18,14.31,.18s9.45-.18,14.31-.18c.99,0,1.8,.27,1.8,.9,0,.54-.72,.72-1.89,.81-2.97,.27-5.49,.54-6.75,2.61-.54,.99-.81,2.16-.81,4.32v5.85Z"/><path class="b" d="M213.72,39.84c0-2.16-.27-3.33-.81-4.23-1.17-2.07-4.77-2.79-6.75-2.79-1.17,0-1.98-.36-1.98-.9,0-.45,.72-.81,1.89-.81,4.77,0,9.54,.18,14.22,.18s9.45-.18,14.31-.18c1.17,0,1.89,.36,1.89,.81,0,.54-.72,.9-1.98,.9-1.98,0-5.58,.72-6.75,2.79-.45,.9-.72,2.07-.72,4.23v23.04c0,2.16,.27,3.33,.72,4.23,1.17,2.07,4.77,2.79,6.75,2.79,1.26,0,1.98,.36,1.98,.9,0,.45-.72,.81-1.89,.81-4.77,0-9.45-.18-14.22-.18s-9.54,.18-14.31,.18c-1.17,0-1.89-.36-1.89-.81,0-.54,.81-.9,1.98-.9,1.98,0,5.58-.72,6.75-2.79,.54-.9,.81-2.07,.81-4.23v-23.04Z"/><path class="b" d="M251.7,39.84c0-6.48-4.32-6.84-7.56-7.02-1.17-.09-1.89-.27-1.89-.81s.54-.9,1.8-.9c3.87,0,10.08,.18,14.13,.18,4.95,0,10.17-.18,11.79-.18h5.31c10.71,0,24.3,1.17,24.3,11.52,0,7.29-6.84,10.62-14.04,11.79,1.62,.45,3.24,1.71,5.4,4.32,2.61,2.61,8.91,11.25,14.67,11.25h2.52c1.98,0,1.89,1.44,.09,1.62-1.17,.09-6.57,.45-7.56,.45-15.12,0-15.66-.63-23.4-11.43-4.23-5.85-5.67-6.03-9.81-6.03h-1.53c-.81,0-1.26,.27-1.26,1.17v7.02c0,2.25,.18,3.42,.72,4.32,1.53,2.7,5.13,2.61,6.75,2.79,1.26,.09,1.89,.27,1.89,.81s-.54,.9-1.8,.9c-4.77,0-9.36-.18-14.04-.18s-9.45,.18-14.13,.18c-1.08,0-1.89-.27-1.89-.9,0-.54,.81-.72,1.98-.81,2.97-.27,5.31-.63,6.66-2.79,.54-.9,.9-2.07,.9-4.32v-22.95Zm22.5,11.16c7.29,0,11.61-1.89,11.61-8.01s-4.32-8.46-11.52-8.46h-3.42c-5.76,0-6.21,.45-6.21,4.41v10.89c0,.9,.27,1.17,1.26,1.17h8.28Z"/><path class="b" d="M323.7,39.84c0-2.16-.27-3.33-.81-4.23-1.17-2.07-4.77-2.79-6.75-2.79-1.17,0-1.98-.36-1.98-.9,0-.45,.72-.81,1.89-.81,4.77,0,9.54,.18,14.22,.18s9.45-.18,14.31-.18c1.17,0,1.89,.36,1.89,.81,0,.54-.72,.9-1.98,.9-1.98,0-5.58,.72-6.75,2.79-.45,.9-.72,2.07-.72,4.23v23.04c0,2.16,.27,3.33,.72,4.23,1.17,2.07,4.77,2.79,6.75,2.79,1.26,0,1.98,.36,1.98,.9,0,.45-.72,.81-1.89,.81-4.77,0-9.45-.18-14.22-.18s-9.54,.18-14.31,.18c-1.17,0-1.89-.36-1.89-.81,0-.54,.81-.9,1.98-.9,1.98,0,5.58-.72,6.75-2.79,.54-.9,.81-2.07,.81-4.23v-23.04Z"/><path class="b" d="M398.21,43.98c.18,.99,0,1.53-.36,1.62-.45,.09-.99-.09-1.26-1.08-2.25-8.37-11.88-10.26-19.53-10.26-6.93,0-15.57,1.08-15.57,5.85,0,10.17,40.14-1.89,40.14,18.36,0,11.16-11.88,14.04-25.56,14.04-8.55,0-13.41-1.08-20.16-2.7-1.62-.36-1.35,.18-1.8,.27-.45,.09-.99-.36-1.35-2.16l-2.34-11.79c-.18-.99,0-1.71,.45-1.8,.63-.09,.9,.27,1.26,1.44,2.52,10.26,15.93,12.78,23.94,12.78,6.39,0,15.66-.27,15.66-6.48,0-11.07-40.14,2.43-40.14-17.91,0-11.07,12.15-13.95,25.56-13.95,7.47,0,11.43,.72,16.38,2.43,1.62,.54,1.35-.27,1.89-.27,.36,0,.72,.45,1.08,2.7l1.71,8.91Z"/></g></svg>