<?xml version="1.0" encoding="UTF-8"?>
<svg id="a" xmlns="http://www.w3.org/2000/svg" version="1.1" viewBox="0 0 170.9 22.5">
  <!-- Generator: Adobe Illustrator 29.7.1, SVG Export Plug-In . SVG Version: 2.1.1 Build 8)  -->
  <defs>
    <style>
      .st0 {
        fill: #dbc14a;
      }
    </style>
  </defs>
  <g id="b">
    <g>
      <path d="M.3.6h3.2l.6,13L10.2.6h2.2l.9,13,2.3-5c1-2.1,3.2-7.4,3.5-8h1l-5.8,12.7c-.4.9-1.3,3-1.6,3.6h-2.3l-.8-13-4.4,9.3c-.4.8-1.4,3.2-1.7,3.7H1.2L.3.6Z"/>
      <path d="M26.8,14.9c-1.2,1.5-3.1,2.3-4.8,2.3-2.5,0-4.5-1.9-4.5-4.7s3.3-6.5,6.5-6.5,3.6,1.8,3.6,3.8,0,.9-.2,1.4h-6.9c0,.5-.1,1.1-.1,1.6,0,2.3,1,3.5,2.6,3.5s2.3-.6,3.2-1.9l.6.6h0ZM24.6,10.3c0-.5.1-.9.1-1.4,0-1.1-.3-2.1-1.2-2.3-1.4.1-2.4,1.8-2.9,3.7h4Z"/>
      <path d="M31.1.6l2.9-.2-1.5,7.5c.8-1,2-2,3.6-2s3.5,1.6,3.5,4c0,3.6-3,7.2-6,7.2s-2.1-.5-2.9-1.1l-.6.9h-2.1L31.1.6h0ZM31,15.5c.6.3,1.5.6,2.2.6,2-.6,3.5-3.7,3.5-6.2s-.5-2.5-1.8-2.5-2,.7-2.6,1.7l-1.2,6.4h0Z"/>
      <path d="M49.4.6h4.4c3.5,0,7.8,1.5,7.8,6.5s-4.8,9.8-9.9,9.8h-5.5L49.4.6ZM52.5,16.2c4-1.4,5.9-5.4,5.9-9.1s-3.3-5.7-5.3-5.7h-.8l-2.9,14.8h3Z"/>
      <path d="M71.2,14.9c-1.2,1.5-3.1,2.3-4.8,2.3-2.6,0-4.5-1.9-4.5-4.7s3.3-6.5,6.5-6.5,3.6,1.8,3.6,3.8,0,.9-.2,1.4h-6.9c0,.5-.1,1.1-.1,1.6,0,2.3,1,3.5,2.6,3.5s2.3-.6,3.2-1.9l.6.6h0ZM69,10.3c0-.5.1-.9.1-1.4,0-1.1-.3-2.1-1.2-2.3-1.4.1-2.4,1.8-2.9,3.7h4Z"/>
      <path d="M73.1,6.2h2.9l1.1,8.5,2.4-4.1c.8-1.4,1.9-3.3,2.5-4.4h1.1l-4.9,8.2c-.4.7-1.1,1.9-1.5,2.5h-2s-1.6-10.7-1.6-10.7Z"/>
      <path d="M91.7,14.9c-1.2,1.5-3.1,2.3-4.8,2.3-2.6,0-4.5-1.9-4.5-4.7s3.3-6.5,6.5-6.5,3.6,1.8,3.6,3.8,0,.9-.2,1.4h-6.9c0,.5-.1,1.1-.1,1.6,0,2.3,1,3.5,2.6,3.5s2.3-.6,3.2-1.9l.6.6h0ZM89.5,10.3c0-.5.1-.9.1-1.4,0-1.1-.3-2.1-1.2-2.3-1.4.1-2.4,1.8-2.9,3.7h4Z"/>
      <path d="M96.4.6l2.9-.2-3.2,16.5h-2.8l3.2-16.3h0Z"/>
      <path d="M99,12.5c0-3.6,3.2-6.5,6.4-6.5s4.5,1.9,4.5,4.6-3.2,6.6-6.4,6.6-4.5-1.9-4.5-4.7ZM103.6,16.5c2.1-.2,3.4-3.5,3.4-6.2s-.6-3.4-1.8-3.6c-2,.4-3.3,3.5-3.3,6.4s.6,3.2,1.7,3.5h0Z"/>
      <path d="M112.4,6.2l2.2-.2v2.3c.9-1.1,2.2-2.3,4-2.3s3.5,1.6,3.5,4c0,3.6-3,7.2-6.1,7.2s-2-.5-2.8-1l-1.2,6.1h-2.8l3.1-16.1h0ZM113.5,15.4c.7.4,1.6.6,2.3.6,2-.6,3.5-3.7,3.5-6.2s-.6-2.5-1.8-2.5-2.1.8-2.7,1.9l-1.2,6.2h0Z"/>
      <path d="M136.6,8.8c0-.2,0-.3,0-.4,0-.6-.3-1-.9-1-.9,0-1.9,1-2.6,2.1l-1.4,7.4h-2.8l1.6-8.1c0-.2,0-.3,0-.4,0-.6-.3-1-.9-1-.9,0-1.8.9-2.6,2.1l-1.5,7.4h-2.8l2.1-10.7,2.1-.2v2.5c1.4-1.7,2.7-2.5,4.1-2.5s2.2,1.2,2.2,2.4c1.2-1.6,2.5-2.4,3.9-2.4s2.2,1.1,2.2,2.4,0,.7-.1,1l-1.5,7.6h-2.8l1.6-8.1h0Z"/>
      <path d="M149.6,14.9c-1.2,1.5-3.1,2.3-4.8,2.3-2.6,0-4.5-1.9-4.5-4.7s3.3-6.5,6.5-6.5,3.6,1.8,3.6,3.8,0,.9-.2,1.4h-6.9c0,.5-.1,1.1-.1,1.6,0,2.3,1,3.5,2.6,3.5s2.3-.6,3.2-1.9l.6.6h0ZM147.5,10.3c0-.5.1-.9.1-1.4,0-1.1-.3-2.1-1.2-2.3-1.4.1-2.4,1.8-2.9,3.7h4,0Z"/>
      <path d="M152.8,6.2l2.1-.2v2.5c1.5-1.6,2.9-2.5,4.4-2.5s2.2,1.1,2.2,2.3,0,.7-.1,1l-1.5,7.6h-2.8l1.6-8.1c0-.2,0-.3,0-.4,0-.6-.3-1-.9-1-.9,0-1.9.9-2.8,2.1l-1.5,7.5h-2.8l2.1-10.7h0Z"/>
      <path d="M170.4,7.1c-.4,0-1.9,0-2.9-.1l-1.5,7.8c0,.1,0,.3,0,.4,0,.7.4,1,1.1,1s1.1-.3,1.6-.6l.4.8c-1,.5-2.2.8-3.1.8-1.5,0-2.6-.9-2.6-2.3s0-.4,0-.7l1.4-7.2h-1.4v-.8h1.5l.3-1.6,3.2-2.2-.7,3.7h2.9l-.2.9h0Z"/>
    </g>
    <g>
      <path class="st0" d="M.3.6h3.2l.6,13L10.2.6h2.2l.9,13,2.3-5c1-2.1,3.2-7.4,3.5-8h1l-5.8,12.7c-.4.9-1.3,3-1.6,3.6h-2.3l-.8-13-4.4,9.3c-.4.8-1.4,3.2-1.7,3.7H1.2L.3.6Z"/>
      <path class="st0" d="M26.8,14.9c-1.2,1.5-3.1,2.3-4.8,2.3-2.5,0-4.5-1.9-4.5-4.7s3.3-6.5,6.5-6.5,3.6,1.8,3.6,3.8,0,.9-.2,1.4h-6.9c0,.5-.1,1.1-.1,1.6,0,2.3,1,3.5,2.6,3.5s2.3-.6,3.2-1.9l.6.6h0ZM24.6,10.3c0-.5.1-.9.1-1.4,0-1.1-.3-2.1-1.2-2.3-1.4.1-2.4,1.8-2.9,3.7h4Z"/>
      <path class="st0" d="M31.1.6l2.9-.2-1.5,7.5c.8-1,2-2,3.6-2s3.5,1.6,3.5,4c0,3.6-3,7.2-6,7.2s-2.1-.5-2.9-1.1l-.6.9h-2.1L31.1.6h0ZM31,15.5c.6.3,1.5.6,2.2.6,2-.6,3.5-3.7,3.5-6.2s-.5-2.5-1.8-2.5-2,.7-2.6,1.7l-1.2,6.4h0Z"/>
      <path class="st0" d="M49.4.6h4.4c3.5,0,7.8,1.5,7.8,6.5s-4.8,9.8-9.9,9.8h-5.5L49.4.6ZM52.5,16.2c4-1.4,5.9-5.4,5.9-9.1s-3.3-5.7-5.3-5.7h-.8l-2.9,14.8h3Z"/>
      <path class="st0" d="M71.2,14.9c-1.2,1.5-3.1,2.3-4.8,2.3-2.6,0-4.5-1.9-4.5-4.7s3.3-6.5,6.5-6.5,3.6,1.8,3.6,3.8,0,.9-.2,1.4h-6.9c0,.5-.1,1.1-.1,1.6,0,2.3,1,3.5,2.6,3.5s2.3-.6,3.2-1.9l.6.6h0ZM69,10.3c0-.5.1-.9.1-1.4,0-1.1-.3-2.1-1.2-2.3-1.4.1-2.4,1.8-2.9,3.7h4Z"/>
      <path class="st0" d="M73.1,6.2h2.9l1.1,8.5,2.4-4.1c.8-1.4,1.9-3.3,2.5-4.4h1.1l-4.9,8.2c-.4.7-1.1,1.9-1.5,2.5h-2s-1.6-10.7-1.6-10.7Z"/>
      <path class="st0" d="M91.7,14.9c-1.2,1.5-3.1,2.3-4.8,2.3-2.6,0-4.5-1.9-4.5-4.7s3.3-6.5,6.5-6.5,3.6,1.8,3.6,3.8,0,.9-.2,1.4h-6.9c0,.5-.1,1.1-.1,1.6,0,2.3,1,3.5,2.6,3.5s2.3-.6,3.2-1.9l.6.6h0ZM89.5,10.3c0-.5.1-.9.1-1.4,0-1.1-.3-2.1-1.2-2.3-1.4.1-2.4,1.8-2.9,3.7h4Z"/>
      <path class="st0" d="M96.4.6l2.9-.2-3.2,16.5h-2.8l3.2-16.3h0Z"/>
      <path class="st0" d="M99,12.5c0-3.6,3.2-6.5,6.4-6.5s4.5,1.9,4.5,4.6-3.2,6.6-6.4,6.6-4.5-1.9-4.5-4.7ZM103.6,16.5c2.1-.2,3.4-3.5,3.4-6.2s-.6-3.4-1.8-3.6c-2,.4-3.3,3.5-3.3,6.4s.6,3.2,1.7,3.5h0Z"/>
      <path class="st0" d="M112.4,6.2l2.2-.2v2.3c.9-1.1,2.2-2.3,4-2.3s3.5,1.6,3.5,4c0,3.6-3,7.2-6.1,7.2s-2-.5-2.8-1l-1.2,6.1h-2.8l3.1-16.1h0ZM113.5,15.4c.7.4,1.6.6,2.3.6,2-.6,3.5-3.7,3.5-6.2s-.6-2.5-1.8-2.5-2.1.8-2.7,1.9l-1.2,6.2h0Z"/>
      <path class="st0" d="M136.6,8.8c0-.2,0-.3,0-.4,0-.6-.3-1-.9-1-.9,0-1.9,1-2.6,2.1l-1.4,7.4h-2.8l1.6-8.1c0-.2,0-.3,0-.4,0-.6-.3-1-.9-1-.9,0-1.8.9-2.6,2.1l-1.5,7.4h-2.8l2.1-10.7,2.1-.2v2.5c1.4-1.7,2.7-2.5,4.1-2.5s2.2,1.2,2.2,2.4c1.2-1.6,2.5-2.4,3.9-2.4s2.2,1.1,2.2,2.4,0,.7-.1,1l-1.5,7.6h-2.8l1.6-8.1h0Z"/>
      <path class="st0" d="M149.6,14.9c-1.2,1.5-3.1,2.3-4.8,2.3-2.6,0-4.5-1.9-4.5-4.7s3.3-6.5,6.5-6.5,3.6,1.8,3.6,3.8,0,.9-.2,1.4h-6.9c0,.5-.1,1.1-.1,1.6,0,2.3,1,3.5,2.6,3.5s2.3-.6,3.2-1.9l.6.6h0ZM147.5,10.3c0-.5.1-.9.1-1.4,0-1.1-.3-2.1-1.2-2.3-1.4.1-2.4,1.8-2.9,3.7h4,0Z"/>
      <path class="st0" d="M152.8,6.2l2.1-.2v2.5c1.5-1.6,2.9-2.5,4.4-2.5s2.2,1.1,2.2,2.3,0,.7-.1,1l-1.5,7.6h-2.8l1.6-8.1c0-.2,0-.3,0-.4,0-.6-.3-1-.9-1-.9,0-1.9.9-2.8,2.1l-1.5,7.5h-2.8l2.1-10.7h0Z"/>
      <path class="st0" d="M170.4,7.1c-.4,0-1.9,0-2.9-.1l-1.5,7.8c0,.1,0,.3,0,.4,0,.7.4,1,1.1,1s1.1-.3,1.6-.6l.4.8c-1,.5-2.2.8-3.1.8-1.5,0-2.6-.9-2.6-2.3s0-.4,0-.7l1.4-7.2h-1.4v-.8h1.5l.3-1.6,3.2-2.2-.7,3.7h2.9l-.2.9h0Z"/>
    </g>
  </g>
</svg>