<?xml version="1.0" encoding="UTF-8"?><svg id="a" xmlns="http://www.w3.org/2000/svg" viewBox="2 2.88 170.91 22.54"><defs><style>.c{fill:#dbc14a;}</style></defs><g id="b"><g><path d="M2.31,3.5h3.16l.64,13.03L12.19,3.5h2.21l.85,13.02,2.26-4.98c.97-2.14,3.24-7.37,3.49-8.03h1.02l-5.76,12.66c-.41,.9-1.34,2.96-1.62,3.64h-2.32l-.8-12.98-4.38,9.28c-.38,.8-1.43,3.17-1.65,3.7H3.17L2.31,3.5Z"/><path d="M28.8,17.75c-1.23,1.46-3.14,2.28-4.83,2.28-2.55,0-4.53-1.86-4.53-4.69,0-3.67,3.32-6.51,6.52-6.51,2.56,0,3.59,1.83,3.59,3.75,0,.47-.06,.93-.17,1.37h-6.86c-.09,.52-.14,1.05-.14,1.55,0,2.29,1.01,3.55,2.58,3.55,1.09,0,2.32-.62,3.2-1.9l.64,.59Zm-2.18-4.53c.08-.47,.12-.93,.12-1.36,0-1.14-.31-2.07-1.18-2.34-1.39,.14-2.42,1.82-2.9,3.7h3.96Z"/><path d="M33.07,3.5l2.88-.23-1.47,7.52c.8-1.02,2.01-1.96,3.61-1.96,2.12,0,3.54,1.55,3.54,3.97,0,3.55-3.03,7.23-6.05,7.23-1.11,0-2.06-.5-2.89-1.09l-.63,.86h-2.15l3.17-16.3Zm-.06,14.83c.64,.33,1.52,.58,2.21,.61,2.01-.61,3.47-3.69,3.47-6.17,0-1.55-.55-2.49-1.82-2.49-1.06,0-1.98,.66-2.62,1.68l-1.25,6.38Z"/><path d="M51.43,3.5h4.42c3.52,0,7.78,1.54,7.78,6.47,0,5.3-4.83,9.83-9.92,9.83h-5.45l3.17-16.3Zm3.09,15.54c4.03-1.35,5.94-5.44,5.94-9.1,0-4.83-3.29-5.68-5.32-5.68h-.76l-2.86,14.79h3Z"/><path d="M73.15,17.75c-1.23,1.46-3.14,2.28-4.83,2.28-2.55,0-4.53-1.86-4.53-4.69,0-3.67,3.32-6.51,6.52-6.51,2.56,0,3.59,1.83,3.59,3.75,0,.47-.06,.93-.17,1.37h-6.86c-.09,.52-.14,1.05-.14,1.55,0,2.29,1.01,3.55,2.58,3.55,1.09,0,2.32-.62,3.2-1.9l.64,.59Zm-2.18-4.53c.08-.47,.12-.93,.12-1.36,0-1.14-.31-2.07-1.18-2.34-1.39,.14-2.42,1.82-2.9,3.7h3.96Z"/><path d="M75.1,9.07h2.93l1.13,8.49,2.39-4.1c.8-1.39,1.9-3.33,2.46-4.39h1.06l-4.89,8.25c-.42,.71-1.14,1.91-1.47,2.48h-2l-1.61-10.73Z"/><path d="M93.72,17.75c-1.23,1.46-3.14,2.28-4.83,2.28-2.55,0-4.53-1.86-4.53-4.69,0-3.67,3.32-6.51,6.52-6.51,2.56,0,3.59,1.83,3.59,3.75,0,.47-.06,.93-.17,1.37h-6.86c-.09,.52-.14,1.05-.14,1.55,0,2.29,1.01,3.55,2.58,3.55,1.09,0,2.32-.62,3.2-1.9l.64,.59Zm-2.18-4.53c.08-.47,.12-.93,.12-1.36,0-1.14-.31-2.07-1.18-2.34-1.39,.14-2.42,1.82-2.9,3.7h3.96Z"/><path d="M98.45,3.5l2.88-.23-3.21,16.53h-2.83l3.17-16.3Z"/><path d="M101.04,15.38c0-3.57,3.25-6.54,6.43-6.54,2.55,0,4.47,1.9,4.47,4.65,0,3.57-3.25,6.55-6.43,6.55-2.54,0-4.47-1.9-4.47-4.66Zm4.6,3.98c2.12-.24,3.39-3.48,3.39-6.21,0-1.79-.56-3.36-1.8-3.64-1.96,.37-3.28,3.53-3.28,6.36,0,1.8,.55,3.18,1.7,3.49Z"/><path d="M114.41,9.07l2.19-.23,.12,2.33c.78-1.15,2.1-2.33,3.88-2.33,2.12,0,3.54,1.55,3.54,3.97,0,3.55-3.03,7.23-6.05,7.23-1.05,0-1.97-.45-2.77-1.01l-1.19,6.11h-2.83l3.12-16.07Zm1.04,9.23c.65,.35,1.57,.62,2.28,.64,2.01-.61,3.47-3.69,3.47-6.17,0-1.55-.55-2.49-1.82-2.49-1.12,0-2.08,.75-2.74,1.85l-1.2,6.17Z"/><path d="M138.64,11.72c.03-.16,.05-.31,.05-.45,0-.62-.29-1-.85-1-.86,0-1.87,.97-2.61,2.14l-1.42,7.39h-2.84l1.55-8.08c.03-.16,.05-.31,.05-.45,0-.62-.29-1-.86-1-.85,0-1.78,.88-2.55,2.08l-1.46,7.45h-2.84l2.08-10.73,2.13-.23,.13,2.5c1.23-1.67,2.56-2.5,3.99-2.5,1.7,0,2.2,1.16,2.18,2.44,1.22-1.63,2.53-2.44,3.94-2.44,1.65,0,2.19,1.11,2.19,2.36,0,.33-.05,.66-.1,1l-1.46,7.6h-2.84l1.55-8.08Z"/><path d="M151.65,17.75c-1.23,1.46-3.14,2.28-4.83,2.28-2.55,0-4.53-1.86-4.53-4.69,0-3.67,3.32-6.51,6.52-6.51,2.56,0,3.59,1.83,3.59,3.75,0,.47-.06,.93-.17,1.37h-6.86c-.09,.52-.14,1.05-.14,1.55,0,2.29,1.01,3.55,2.58,3.55,1.09,0,2.32-.62,3.2-1.9l.64,.59Zm-2.18-4.53c.08-.47,.12-.93,.12-1.36,0-1.14-.31-2.07-1.18-2.34-1.39,.14-2.42,1.82-2.9,3.7h3.96Z"/><path d="M154.84,9.07l2.13-.23,.13,2.47c1.34-1.63,2.76-2.47,4.25-2.47,1.7,0,2.22,1.09,2.22,2.34,0,.34-.03,.69-.1,1.02l-1.46,7.6h-2.84l1.55-8.08c.03-.16,.05-.31,.05-.45,0-.59-.29-1-.93-1-.93,0-1.93,.86-2.78,2.06l-1.46,7.47h-2.84l2.08-10.73Z"/><path d="M172.42,9.94c-.36-.02-1.91-.08-2.89-.1l-1.51,7.82c-.03,.15-.05,.29-.05,.42,0,.68,.4,1.02,1.05,1.02,.55,0,1.06-.27,1.57-.65l.38,.76c-.99,.52-2.21,.83-3.13,.83-1.52,0-2.61-.86-2.61-2.34,0-.21,.02-.43,.07-.66l1.4-7.21h-1.4l.15-.76h1.4l.3-1.56,3.25-2.18-.72,3.74h2.92l-.19,.87Z"/></g><g><path class="c" d="M2.31,3.5h3.16l.64,13.03L12.19,3.5h2.21l.85,13.02,2.26-4.98c.97-2.14,3.24-7.37,3.49-8.03h1.02l-5.76,12.66c-.41,.9-1.34,2.96-1.62,3.64h-2.32l-.8-12.98-4.38,9.28c-.38,.8-1.43,3.17-1.65,3.7H3.17L2.31,3.5Z"/><path class="c" d="M28.8,17.75c-1.23,1.46-3.14,2.28-4.83,2.28-2.55,0-4.53-1.86-4.53-4.69,0-3.67,3.32-6.51,6.52-6.51,2.56,0,3.59,1.83,3.59,3.75,0,.47-.06,.93-.17,1.37h-6.86c-.09,.52-.14,1.05-.14,1.55,0,2.29,1.01,3.55,2.58,3.55,1.09,0,2.32-.62,3.2-1.9l.64,.59Zm-2.18-4.53c.08-.47,.12-.93,.12-1.36,0-1.14-.31-2.07-1.18-2.34-1.39,.14-2.42,1.82-2.9,3.7h3.96Z"/><path class="c" d="M33.07,3.5l2.88-.23-1.47,7.52c.8-1.02,2.01-1.96,3.61-1.96,2.12,0,3.54,1.55,3.54,3.97,0,3.55-3.03,7.23-6.05,7.23-1.11,0-2.06-.5-2.89-1.09l-.63,.86h-2.15l3.17-16.3Zm-.06,14.83c.64,.33,1.52,.58,2.21,.61,2.01-.61,3.47-3.69,3.47-6.17,0-1.55-.55-2.49-1.82-2.49-1.06,0-1.98,.66-2.62,1.68l-1.25,6.38Z"/><path class="c" d="M51.43,3.5h4.42c3.52,0,7.78,1.54,7.78,6.47,0,5.3-4.83,9.83-9.92,9.83h-5.45l3.17-16.3Zm3.09,15.54c4.03-1.35,5.94-5.44,5.94-9.1,0-4.83-3.29-5.68-5.32-5.68h-.76l-2.86,14.79h3Z"/><path class="c" d="M73.15,17.75c-1.23,1.46-3.14,2.28-4.83,2.28-2.55,0-4.53-1.86-4.53-4.69,0-3.67,3.32-6.51,6.52-6.51,2.56,0,3.59,1.83,3.59,3.75,0,.47-.06,.93-.17,1.37h-6.86c-.09,.52-.14,1.05-.14,1.55,0,2.29,1.01,3.55,2.58,3.55,1.09,0,2.32-.62,3.2-1.9l.64,.59Zm-2.18-4.53c.08-.47,.12-.93,.12-1.36,0-1.14-.31-2.07-1.18-2.34-1.39,.14-2.42,1.82-2.9,3.7h3.96Z"/><path class="c" d="M75.1,9.07h2.93l1.13,8.49,2.39-4.1c.8-1.39,1.9-3.33,2.46-4.39h1.06l-4.89,8.25c-.42,.71-1.14,1.91-1.47,2.48h-2l-1.61-10.73Z"/><path class="c" d="M93.72,17.75c-1.23,1.46-3.14,2.28-4.83,2.28-2.55,0-4.53-1.86-4.53-4.69,0-3.67,3.32-6.51,6.52-6.51,2.56,0,3.59,1.83,3.59,3.75,0,.47-.06,.93-.17,1.37h-6.86c-.09,.52-.14,1.05-.14,1.55,0,2.29,1.01,3.55,2.58,3.55,1.09,0,2.32-.62,3.2-1.9l.64,.59Zm-2.18-4.53c.08-.47,.12-.93,.12-1.36,0-1.14-.31-2.07-1.18-2.34-1.39,.14-2.42,1.82-2.9,3.7h3.96Z"/><path class="c" d="M98.45,3.5l2.88-.23-3.21,16.53h-2.83l3.17-16.3Z"/><path class="c" d="M101.04,15.38c0-3.57,3.25-6.54,6.43-6.54,2.55,0,4.47,1.9,4.47,4.65,0,3.57-3.25,6.55-6.43,6.55-2.54,0-4.47-1.9-4.47-4.66Zm4.6,3.98c2.12-.24,3.39-3.48,3.39-6.21,0-1.79-.56-3.36-1.8-3.64-1.96,.37-3.28,3.53-3.28,6.36,0,1.8,.55,3.18,1.7,3.49Z"/><path class="c" d="M114.41,9.07l2.19-.23,.12,2.33c.78-1.15,2.1-2.33,3.88-2.33,2.12,0,3.54,1.55,3.54,3.97,0,3.55-3.03,7.23-6.05,7.23-1.05,0-1.97-.45-2.77-1.01l-1.19,6.11h-2.83l3.12-16.07Zm1.04,9.23c.65,.35,1.57,.62,2.28,.64,2.01-.61,3.47-3.69,3.47-6.17,0-1.55-.55-2.49-1.82-2.49-1.12,0-2.08,.75-2.74,1.85l-1.2,6.17Z"/><path class="c" d="M138.64,11.72c.03-.16,.05-.31,.05-.45,0-.62-.29-1-.85-1-.86,0-1.87,.97-2.61,2.14l-1.42,7.39h-2.84l1.55-8.08c.03-.16,.05-.31,.05-.45,0-.62-.29-1-.86-1-.85,0-1.78,.88-2.55,2.08l-1.46,7.45h-2.84l2.08-10.73,2.13-.23,.13,2.5c1.23-1.67,2.56-2.5,3.99-2.5,1.7,0,2.2,1.16,2.18,2.44,1.22-1.63,2.53-2.44,3.94-2.44,1.65,0,2.19,1.11,2.19,2.36,0,.33-.05,.66-.1,1l-1.46,7.6h-2.84l1.55-8.08Z"/><path class="c" d="M151.65,17.75c-1.23,1.46-3.14,2.28-4.83,2.28-2.55,0-4.53-1.86-4.53-4.69,0-3.67,3.32-6.51,6.52-6.51,2.56,0,3.59,1.83,3.59,3.75,0,.47-.06,.93-.17,1.37h-6.86c-.09,.52-.14,1.05-.14,1.55,0,2.29,1.01,3.55,2.58,3.55,1.09,0,2.32-.62,3.2-1.9l.64,.59Zm-2.18-4.53c.08-.47,.12-.93,.12-1.36,0-1.14-.31-2.07-1.18-2.34-1.39,.14-2.42,1.82-2.9,3.7h3.96Z"/><path class="c" d="M154.84,9.07l2.13-.23,.13,2.47c1.34-1.63,2.76-2.47,4.25-2.47,1.7,0,2.22,1.09,2.22,2.34,0,.34-.03,.69-.1,1.02l-1.46,7.6h-2.84l1.55-8.08c.03-.16,.05-.31,.05-.45,0-.59-.29-1-.93-1-.93,0-1.93,.86-2.78,2.06l-1.46,7.47h-2.84l2.08-10.73Z"/><path class="c" d="M172.42,9.94c-.36-.02-1.91-.08-2.89-.1l-1.51,7.82c-.03,.15-.05,.29-.05,.42,0,.68,.4,1.02,1.05,1.02,.55,0,1.06-.27,1.57-.65l.38,.76c-.99,.52-2.21,.83-3.13,.83-1.52,0-2.61-.86-2.61-2.34,0-.21,.02-.43,.07-.66l1.4-7.21h-1.4l.15-.76h1.4l.3-1.56,3.25-2.18-.72,3.74h2.92l-.19,.87Z"/></g></g></svg>